<?xml  version="1.0" encoding="UTF-8"?>
<!DOCTYPE svg PUBLIC "-//W3C//DTD SVG 1.0//EN" "http://www.w3.org/TR/2001/REC-SVG-20010904/DTD/svg10.dtd" >
<svg xmlns="http://www.w3.org/2000/svg" >
<metadata>
<version>1.0</version>
<id><![CDATA[Museo Sans W01 700]]></id>
<vendor>Monotype Imaging Inc.</vendor>
<credits>
<name>Fonts.com WebFonts</name>
<URL>http://webfonts.fonts.com</URL>
<role>Home of the Web fonts</role>
</credits>
<license>
<URL>http://webfonts.fonts.com/Legal</URL>
</license>
<copyright><![CDATA[Copyright (c) 2008 by Jos Buivenga. All rights reserved.]]></copyright>
<trademark><![CDATA[Museo Sans is a trademark of Jos Buivenga.]]></trademark>
<licensee>
<name></name>
</licensee>
</metadata>
<defs >
<font horiz-adv-x="1148" id="9a2af429-2624-4bd1-a676-8f0eed3e7e31">
<font-face font-family="" panose-1="2 0 0 0 0 0 0 0 0 0" ascent="1540" descent="-508" units-per-em="2048" alphabetic="0">
</font-face>
<missing-glyph horiz-adv-x="0" />

<glyph unicode="&#xA;" />
<glyph unicode="&#xD;" horiz-adv-x="0" />
<glyph unicode=" " horiz-adv-x="498" />
<glyph unicode="!" horiz-adv-x="672" d="M201 1454H471L451 420H223L201 1454ZM211 242H463V0H211V242Z"  />
<glyph unicode="&quot;" horiz-adv-x="750" d="M442 1481H635V1053H442V1481ZM115 1481H307V1053H115V1481Z"  />
<glyph unicode="#" horiz-adv-x="1446" d="M317 383H74L104 569H348L399 856H160L190 1044H432L504 1454H713L641 1044H920L991 1454H1200L1128 1044H1376L1343 856H1098L1047 569H1290L1260 383H1014L948 0H739L807 383H526L461 0H252L317 383ZM838 569L889 856H608L557 569H838Z"  />
<glyph unicode="$" horiz-adv-x="1167" d="M236 373Q283 329 340 296Q389 267 454 243T598 219Q640 219 678 230T745 262T791 317T809 395Q809 441 780 476T701 540T590 596T463 653T336 718T225 802T147 912T117 1057Q117 1136 145 1205T224 1328T345 1418T502 1468V1661H678V1473Q767 1465 834 1441T947 1390Q1000 1359 1038 1323L924 1108Q882 1143 831 1171Q787 1195 729 1215T602 1235Q556 1235 516 1222T447 1186T400 1131T383 1061Q383 1015 412 982T490 920T601 866T728 812T855 748T965 664T1043 551T1073 401Q1073 323 1047 253T970 126T846 32T678 -18V-207H502V-18Q403 -7 327 24T198 89Q136 128 92 174L236 373Z"  />
<glyph unicode="%" horiz-adv-x="1622" d="M412 831Q343 831 282 856T176 925T104 1028T78 1155Q78 1221 104 1280T175 1383T282 1453T412 1479Q481 1479 542 1453T649 1383T721 1280T748 1155Q748 1087 722 1028T649 926T542 857T412 831ZM1245 1454H1485L369 0H129L1245 1454ZM412 1020Q440 1020 465 1030T508 1059T538 1101T549 1155Q549 1183 538 1207T509 1250T465 1279T412 1290Q383 1290 359 1280T316 1251T287 1208T276 1155Q276 1126 286 1102T315 1059T358 1031T412 1020ZM872 297Q872 363 898 422T969 525T1075 595T1206 621Q1275 621 1336 595T1442 525T1514 422T1540 297Q1540 230 1514 172T1443 70T1336 1T1206 -25Q1136 -25 1075 0T969 69T898 171T872 297ZM1071 299Q1071 270 1081 246T1110 203T1152 175T1206 164Q1234 164 1259 174T1303 203T1332 245T1343 299Q1343 327 1333 351T1303 394T1259 423T1206 434Q1177 434 1153 424T1110 395T1082 352T1071 299Z"  />
<glyph unicode="&amp;" horiz-adv-x="1407" d="M92 412Q92 471 109 527T158 632T236 717T340 774V778Q288 802 248 845Q231 863 215 887T185 943T164 1012T156 1096Q156 1193 192 1265T290 1384T436 1455T614 1479Q649 1479 683 1475T744 1466Q776 1461 805 1454L741 1245Q727 1248 711 1251Q697 1253 680 1255T645 1257Q599 1257 559 1245T488 1208T440 1147T422 1063Q422 1031 432 997T467 935T535 889T643 870H874V1059H1135V870H1323V641H1135V469Q1135 358 1100 267T997 111T832 11T612 -25Q494 -25 398 8T234 101T129 240T92 412ZM362 428Q362 384 380 346T431 279T510 234T612 217Q736 217 805 283T874 483V641H629Q568 641 519 628T435 588T381 521T362 428Z"  />
<glyph unicode="&apos;" horiz-adv-x="426" d="M115 1481H311V1053H115V1481Z"  />
<glyph unicode="(" horiz-adv-x="635" d="M377 -195Q262 -8 198 220T133 702Q133 925 196 1128T377 1518H596Q483 1328 424 1123T365 700Q365 470 422 245T596 -195H377Z"  />
<glyph unicode=")" horiz-adv-x="635" d="M39 -195Q153 19 211 244T270 700Q270 918 211 1123T39 1518H258Q376 1332 439 1129T502 702Q502 449 438 221T258 -195H39Z"  />
<glyph unicode="*" horiz-adv-x="944" d="M143 793L313 997V1001L55 1065L125 1286L373 1186L354 1454H590L571 1186L819 1286L893 1067L631 1001V997L803 795L616 657L475 883H471L330 657L143 793Z"  />
<glyph unicode="+" horiz-adv-x="1296" d="M100 686H543V1171H754V686H1196V483H754V0H543V483H100V686Z"  />
<glyph unicode="&#x2c;" horiz-adv-x="543" d="M172 264H428L231 -215H35L172 264Z"  />
<glyph unicode="-" horiz-adv-x="936" d="M160 698H776V471H160V698Z"  />
<glyph unicode="." horiz-adv-x="526" d="M133 260H393V0H133V260Z"  />
<glyph unicode="/" horiz-adv-x="840" d="M575 1528H799L276 -86H55L575 1528Z"  />
<glyph unicode="0" horiz-adv-x="1288" d="M643 -25Q544 -25 467 2T331 78T232 195T166 348T129 528T117 729Q117 886 143 1022T231 1260T393 1420T643 1479Q792 1479 893 1421T1056 1261T1144 1023T1171 729Q1171 624 1160 528T1123 348T1056 196T957 78T820 2T643 -25ZM643 217Q718 217 767 256T845 365T887 527T899 729Q899 835 887 927T846 1088T767 1195T643 1235Q568 1235 519 1196T441 1088T399 928T387 729Q387 621 399 528T440 365T519 257T643 217Z"  />
<glyph unicode="1" horiz-adv-x="1049" d="M111 227H426V1034Q426 1052 426 1070T427 1102Q427 1119 428 1133H424Q419 1123 410 1110Q402 1099 390 1084T360 1051L244 940L88 1104L453 1454H684V227H999V0H111V227Z"  />
<glyph unicode="2" horiz-adv-x="1188" d="M115 0Q110 35 106 66T102 129Q102 227 131 306T208 449T317 567T442 666T567 753T676 837T753 926T782 1026Q782 1074 765 1111T718 1175T648 1215T561 1229Q529 1229 501 1222T449 1202T403 1175T366 1143Q327 1105 299 1057L102 1188Q144 1269 212 1333Q241 1360 278 1386T361 1433T463 1466T584 1479Q680 1479 766 1451T916 1367T1019 1232T1057 1049Q1057 961 1029 891T955 762T851 656T731 566T610 485T505 406T429 323T399 227H1079V0H115Z"  />
<glyph unicode="3" horiz-adv-x="1176" d="M207 373Q249 332 300 299Q344 271 404 248T537 225Q594 225 642 241T725 287T779 355T799 442Q799 500 774 542T707 613T608 654T487 668H387L328 803L594 1118Q615 1144 634 1164T667 1199Q684 1216 698 1229V1233Q684 1231 666 1230Q633 1227 569 1227H135V1454H1024V1288L668 877Q743 866 814 834T941 749T1031 621T1065 453Q1065 360 1031 274T931 121T770 15T553 -25Q495 -25 444 -17T348 5T266 36T197 72Q125 115 72 170L207 373Z"  />
<glyph unicode="4" horiz-adv-x="1272" d="M57 537L684 1454H997V594H1186V375H997V0H737V375H57V537ZM737 594V1044Q737 1071 738 1098T742 1147Q745 1173 748 1196H743Q733 1173 722 1150Q712 1130 699 1107T672 1063L336 598V594H737Z"  />
<glyph unicode="5" horiz-adv-x="1165" d="M223 371Q259 330 307 298Q348 270 404 248T532 225Q585 225 634 242T722 291T784 369T807 473Q807 530 785 576T723 656T630 707T514 725Q465 725 424 715T353 694Q318 681 289 664L143 717L211 1454H975V1227H438L416 987Q414 972 413 960T409 939Q407 928 406 920H410Q429 929 454 936Q475 942 503 947T565 952Q686 952 781 915T942 812T1042 660T1077 475Q1077 367 1038 276T929 118T763 13T553 -25Q495 -25 445 -17T351 5T271 37T205 73Q136 116 88 172L223 371Z"  />
<glyph unicode="6" horiz-adv-x="1237" d="M670 -25Q556 -25 455 21T276 155T154 372T109 666Q109 761 127 858T182 1046T274 1215T404 1352T572 1445T778 1479Q847 1479 902 1469T996 1448Q1041 1434 1075 1417L997 1190Q970 1202 937 1212Q909 1220 872 1227T793 1235Q707 1235 641 1202T527 1115T449 990T406 846H410Q429 868 459 887T526 919T603 940T682 948Q790 948 876 909T1023 804T1116 649T1149 463Q1149 362 1115 273T1018 118T867 14T670 -25ZM670 217Q721 217 761 236T829 288T872 367T887 463Q887 518 870 567T820 652T736 710T621 731Q571 731 528 719T453 686T402 636T383 573Q383 505 406 441T468 327T560 247T670 217Z"  />
<glyph unicode="7" horiz-adv-x="1114" d="M705 1094Q722 1128 738 1152T766 1194Q780 1213 793 1227V1231Q783 1230 769 1229Q757 1228 738 1228T692 1227H72V1454H1071V1270L434 0H160L705 1094Z"  />
<glyph unicode="8" horiz-adv-x="1251" d="M104 422Q104 474 117 519T151 604T197 675T247 732T292 772T324 797Q291 822 264 851T216 916T185 992T174 1081Q174 1156 202 1228T288 1355T433 1445T641 1479Q742 1479 828 1452T978 1372T1076 1244T1112 1075Q1112 1030 1101 987T1074 906T1037 835T999 777T968 737T950 717Q990 691 1024 661T1084 593T1123 510T1137 408Q1137 324 1103 246T1003 108T842 11T625 -25Q506 -25 410 9T246 104T141 246T104 422ZM868 420Q868 468 837 504T755 570T640 628T510 688Q492 673 469 650T425 596T390 526T375 442Q375 391 395 348T450 274T530 226T625 209Q676 209 720 224T797 266T849 333T868 420ZM434 1075Q434 1025 461 988T533 921T636 866T756 813Q763 822 779 843T812 897T841 970T854 1059Q854 1101 839 1135T795 1193T726 1230T637 1243Q587 1243 549 1230T486 1195T447 1141T434 1075Z"  />
<glyph unicode="9" horiz-adv-x="1237" d="M459 -25Q389 -25 334 -16T241 6Q196 19 162 37L240 264Q267 251 300 240Q328 231 364 224T442 217Q528 217 594 250T709 337T787 462T831 606H827Q808 584 778 565T710 533T633 512T553 504Q445 504 359 543T213 649T121 804T88 991Q88 1092 122 1181T219 1336T370 1440T567 1479Q681 1479 782 1433T961 1299T1083 1082T1128 788Q1128 693 1110 596T1055 409T963 239T833 102T665 9T459 -25ZM616 721Q665 721 708 733T784 767T835 817T854 879Q854 947 831 1011T768 1125T676 1205T567 1235Q516 1235 476 1216T407 1164T363 1087T348 991Q348 936 365 887T416 801T500 743T616 721Z"  />
<glyph unicode=":" horiz-adv-x="590" d="M166 1044H424V784H166V1044ZM166 260H424V0H166V260Z"  />
<glyph unicode=";" horiz-adv-x="598" d="M182 264H438L262 -215H63L182 264ZM184 1044H442V784H184V1044Z"  />
<glyph unicode="&lt;" horiz-adv-x="1139" d="M51 670L1036 1108V881L326 588V584L1036 291V63L51 502V670Z"  />
<glyph unicode="=" horiz-adv-x="1335" d="M168 895H1167V694H168V895ZM168 475H1167V274H168V475Z"  />
<glyph unicode="&gt;" horiz-adv-x="1139" d="M102 291L813 584V588L102 881V1108L1087 670V502L102 63V291Z"  />
<glyph unicode="?" horiz-adv-x="997" d="M272 518Q272 592 297 647T359 747T441 827T522 901T585 979T610 1073Q610 1109 595 1140T553 1194T490 1230T412 1243Q367 1243 328 1230T259 1200Q224 1181 193 1157L49 1335Q92 1376 150 1409Q200 1437 271 1460T434 1483Q521 1483 601 1457T744 1381T844 1260T881 1098Q881 1013 855 952T789 842T703 755T617 678T551 598T524 500V420H272V518ZM272 242H524V0H272V242Z"  />
<glyph unicode="@" horiz-adv-x="1708" d="M104 492Q104 598 131 696T207 879T326 1033T481 1152T666 1228T874 1255Q1031 1255 1138 1219T1312 1121T1408 978T1438 809V297H1587V111H1020Q916 111 835 143T697 228T610 349T580 492Q580 565 609 632T694 752T833 835T1020 866H1194Q1192 906 1169 939T1104 997T1006 1034T883 1047Q772 1047 676 1001T510 878T400 701T360 492Q360 380 398 280T509 105T684 -13T915 -57V-260Q732 -260 583 -202T327 -42T162 197T104 492ZM838 498Q838 456 852 420T893 356T955 313T1036 297H1194V698H1040Q994 698 957 682T894 639T853 575T838 498Z"  />
<glyph unicode="A" horiz-adv-x="1305" d="M907 373H397L274 0H2L514 1454H791L1303 0H1030L907 373ZM651 1202Q642 1160 631 1120Q622 1085 612 1047T590 977L461 588H842L713 977Q702 1008 692 1046T674 1120Q664 1160 655 1202H651Z"  />
<glyph unicode="B" horiz-adv-x="1315" d="M184 1454H705Q803 1454 885 1429T1027 1357T1120 1239T1153 1079Q1153 977 1107 895T977 768V764Q1037 746 1081 711T1154 631T1198 531T1212 422Q1212 313 1172 234T1062 102T902 25T711 0H184V1454ZM705 860Q748 860 781 874T838 914T873 973T885 1047Q885 1086 874 1119T839 1176T781 1213T700 1227H449V860H705ZM731 227Q782 227 821 242T887 286T928 353T942 438Q942 483 928 521T886 588T820 631T731 647H449V227H731Z"  />
<glyph unicode="C" horiz-adv-x="1466" d="M84 733Q84 891 140 1027T297 1264T533 1422T831 1479Q897 1479 955 1471T1064 1448T1157 1416T1233 1379Q1312 1335 1368 1280L1241 1083Q1191 1126 1129 1160Q1076 1189 1004 1213T844 1237Q729 1237 639 1197T485 1089T389 930T356 737Q356 633 390 539T487 374T641 260T846 217Q893 217 936 225T1018 246T1089 275T1151 309Q1216 349 1268 401L1407 211Q1344 145 1260 93Q1224 71 1179 50T1081 12T967 -15T836 -25Q725 -25 626 1T444 76T294 193T181 346T109 528T84 733Z"  />
<glyph unicode="D" horiz-adv-x="1513" d="M184 1454H680Q848 1454 985 1406T1218 1264T1368 1036T1421 729Q1421 557 1368 422T1219 193T985 50T680 0H184V1454ZM666 227Q777 227 866 259T1018 355T1115 512T1149 729Q1149 850 1115 943T1017 1099T864 1194T666 1227H449V227H666Z"  />
<glyph unicode="E" horiz-adv-x="1178" d="M184 1454H1055V1227H449V846H938V618H449V227H1087V0H184V1454Z"  />
<glyph unicode="F" horiz-adv-x="1083" d="M184 1454H1020V1227H449V815H930V588H449V0H184V1454Z"  />
<glyph unicode="G" horiz-adv-x="1556" d="M86 729Q86 834 111 931T184 1111T298 1262T449 1378T630 1453T836 1479Q903 1479 961 1471T1070 1450T1162 1420T1239 1386Q1318 1346 1376 1294L1245 1098Q1198 1136 1138 1167Q1087 1193 1017 1215T858 1237Q736 1237 643 1198T486 1090T391 931T358 737Q358 619 396 523T500 359T655 254T846 217Q928 217 995 240T1110 293Q1166 326 1210 369V539H987V766H1448V0H1223V70Q1223 81 1223 92T1224 112Q1224 122 1225 131H1221Q1174 87 1111 53Q1057 24 979 0T799 -25Q655 -25 526 28T299 180T144 418T86 729Z"  />
<glyph unicode="H" horiz-adv-x="1563" d="M184 1454H449V838H1114V1454H1378V0H1114V610H449V0H184V1454Z"  />
<glyph unicode="I" horiz-adv-x="633" d="M184 1454H449V0H184V1454Z"  />
<glyph unicode="J" horiz-adv-x="1120" d="M49 514H311V446Q311 381 327 338T371 267T432 229T504 217Q541 217 574 228T633 266T674 333T690 434V1227H315V1454H954V430Q954 311 915 225T811 84T666 2T500 -25Q416 -25 335 2T191 85T88 227T49 430V514Z"  />
<glyph unicode="K" horiz-adv-x="1325" d="M184 1454H449V862H637L979 1454H1266L854 762V758L1290 0H993L637 635H449V0H184V1454Z"  />
<glyph unicode="L" horiz-adv-x="1104" d="M184 1454H449V227H1077V0H184V1454Z"  />
<glyph unicode="M" horiz-adv-x="1798" d="M258 1454H541L825 735Q837 703 850 666T874 596Q886 558 899 522H903Q915 558 927 596Q938 628 950 665T975 735L1260 1454H1542L1659 0H1397L1335 813Q1333 849 1333 888T1332 961Q1332 1000 1333 1038H1329Q1316 997 1303 957Q1292 922 1278 884T1251 813L1016 250H784L551 813Q537 845 524 884T498 958Q484 998 471 1040H467Q468 1002 468 962Q468 928 468 889T465 813L403 0H139L258 1454Z"  />
<glyph unicode="N" horiz-adv-x="1556" d="M184 1454H449L999 614Q1020 582 1041 544T1080 470Q1100 430 1120 389H1124Q1120 429 1117 469Q1114 503 1112 542T1110 614V1454H1372V0H1110L559 838Q538 870 517 908T478 982Q458 1022 438 1063H434Q437 1023 441 983Q444 948 446 909T449 838V0H184V1454Z"  />
<glyph unicode="O" horiz-adv-x="1671" d="M84 737Q84 841 110 936T184 1114T299 1264T450 1379T631 1453T836 1479Q943 1479 1040 1453T1220 1379T1372 1264T1487 1115T1561 937T1587 737Q1587 630 1561 532T1488 350T1372 196T1221 77T1040 2T836 -25Q729 -25 632 1T451 77T300 195T184 349T110 532T84 737ZM356 737Q356 625 393 530T496 365T648 256T836 217Q936 217 1023 256T1175 364T1277 529T1315 737Q1315 845 1278 936T1175 1094T1023 1199T836 1237Q736 1237 649 1199T496 1095T394 937T356 737Z"  />
<glyph unicode="P" horiz-adv-x="1257" d="M184 1454H745Q847 1454 932 1420T1079 1324T1174 1174T1208 981Q1208 875 1174 787T1079 636T933 537T745 502H449V0H184V1454ZM696 731Q754 731 799 748T875 799T923 878T940 981Q940 1037 924 1082T876 1160T801 1209T700 1227H449V731H696Z"  />
<glyph unicode="Q" horiz-adv-x="1692" d="M84 735Q84 892 141 1027T299 1263T537 1421T834 1479Q995 1479 1133 1422T1372 1264T1530 1028T1587 735Q1587 602 1544 486T1427 274L1591 127L1440 -41L1278 119Q1187 50 1075 13T834 -25Q727 -25 631 2T451 78T300 196T184 349T110 531T84 735ZM356 735Q356 624 393 529T494 365T646 256T834 217Q900 217 967 237T1087 293L926 446L1077 612L1235 455Q1272 515 1293 586T1315 735Q1315 843 1278 935T1176 1094T1023 1199T834 1237Q734 1237 647 1199T495 1094T393 935T356 735Z"  />
<glyph unicode="R" horiz-adv-x="1348" d="M184 1454H653Q712 1454 756 1452T835 1444T895 1432T946 1413Q1056 1364 1120 1263T1184 1016Q1184 951 1167 889T1119 775T1042 682T938 618V614Q944 608 952 598Q959 590 967 576T987 543L1286 0H991L702 543H449V0H184V1454ZM686 772Q792 772 853 832T915 1001Q915 1053 903 1095T860 1166T778 1211T649 1227H449V772H686Z"  />
<glyph unicode="S" horiz-adv-x="1135" d="M217 373Q265 329 322 296Q371 267 436 243T580 219Q621 219 659 230T726 262T773 317T791 395Q791 444 762 480T684 545T574 601T448 656T322 720T212 802T134 911T104 1057Q104 1147 141 1224T243 1358T398 1447T592 1479Q700 1479 781 1455T917 1401Q981 1367 1026 1323L911 1108Q869 1143 819 1171Q775 1195 717 1215T590 1235Q544 1235 504 1222T435 1186T388 1131T371 1061Q371 1013 400 978T478 915T587 862T713 809T838 747T948 664T1025 552T1055 401Q1055 314 1023 237T929 102T778 9T575 -25Q514 -25 461 -17T361 6T275 37T203 74Q128 118 74 174L217 373Z"  />
<glyph unicode="T" horiz-adv-x="1235" d="M485 1227H8V1454H1227V1227H750V0H485V1227Z"  />
<glyph unicode="U" horiz-adv-x="1501" d="M164 1454H428V522Q428 449 451 393T516 297T617 238T750 217Q823 217 882 237T984 297T1050 393T1073 524V1454H1337V522Q1337 400 1295 300T1176 127T991 15T752 -25Q620 -25 512 15T326 127T206 299T164 522V1454Z"  />
<glyph unicode="V" horiz-adv-x="1319" d="M-2 1454H283L602 506Q613 474 622 437T639 368T651 315T657 293H662Q663 293 667 314T679 368T696 437T717 506L1038 1454H1321L791 0H528L-2 1454Z"  />
<glyph unicode="W" horiz-adv-x="1978" d="M1360 449Q1368 417 1373 389T1380 340T1384 307T1386 295H1391Q1392 316 1396 341Q1399 362 1403 390T1415 449L1655 1454H1927L1552 0H1247L1024 860Q1014 895 1008 929T996 991Q991 1023 987 1051H983Q979 1023 974 991Q969 964 962 930T946 860L723 0H418L53 1454H326L555 449Q562 418 566 390T574 341Q578 316 580 295H584Q585 295 586 307T589 340T597 389T610 449L872 1454H1102L1360 449Z"  />
<glyph unicode="X" horiz-adv-x="1296" d="M487 737L53 1454H354L553 1098Q570 1066 587 1035T617 977Q632 947 645 920H649Q661 947 675 977Q687 1003 703 1034T737 1098L940 1454H1243L805 737L1260 0H963L737 391Q719 423 703 453T674 508Q659 536 647 563H643Q630 536 616 508Q604 483 588 453T553 391L330 0H35L487 737Z"  />
<glyph unicode="Y" horiz-adv-x="1239" d="M487 608L4 1454H303L530 1026Q548 992 563 957T591 894T610 848T618 831H623Q635 862 649 895Q661 923 677 957T711 1026L936 1454H1235L752 608V0H487V608Z"  />
<glyph unicode="Z" horiz-adv-x="1257" d="M78 170L723 1096Q744 1128 763 1152T797 1193Q814 1212 829 1227V1231Q817 1230 800 1229Q786 1228 766 1228T721 1227H111V1454H1161V1286L516 358Q494 326 475 302T442 261Q425 242 410 227V223Q422 224 439 225Q453 226 472 226T518 227H1169V0H78V170Z"  />
<glyph unicode="[" horiz-adv-x="649" d="M190 1518H594V1329H412V-6H594V-195H190V1518Z"  />
<glyph unicode="\" horiz-adv-x="842" d="M41 1528H264L786 -86H563L41 1528Z"  />
<glyph unicode="]" horiz-adv-x="649" d="M238 -6V1329H55V1518H459V-195H55V-6H238Z"  />
<glyph unicode="^" horiz-adv-x="1268" d="M545 1454H709L1120 502H895L627 1180L358 502H133L545 1454Z"  />
<glyph unicode="_" horiz-adv-x="1231" d="M1190 0V-201H41V0H1190Z"  />
<glyph unicode="`" horiz-adv-x="1010" d="M293 1829H561L717 1550H506L293 1829Z"  />
<glyph unicode="a" horiz-adv-x="1094" d="M55 301Q55 384 89 442T177 540T300 602T438 637T569 652T674 655H709V670Q709 721 694 756T652 813T588 844T508 854Q451 854 400 839T308 804Q261 782 221 754L123 940Q173 976 235 1004Q289 1028 363 1048T532 1069Q635 1069 716 1042T852 961T937 830T967 653V0H727V86Q727 101 727 114T729 138Q730 149 731 160H727Q727 160 721 147T699 112T658 68T598 23T516 -11T410 -25Q340 -25 276 -4T162 59T84 162T55 301ZM317 313Q317 287 327 263T356 220T405 190T475 178Q526 178 569 203T644 268T693 356T711 453V477H666Q632 477 594 475T516 467T441 450T378 421T334 376T317 313Z"  />
<glyph unicode="b" horiz-adv-x="1251" d="M143 1454H403V1006Q403 986 403 970T401 942Q400 928 399 918H403Q432 960 477 993Q496 1007 520 1021T574 1045T639 1062T717 1069Q823 1069 908 1029T1054 917T1147 744T1180 522Q1180 397 1144 296T1044 124T892 14T700 -25Q618 -25 560 -1T463 53Q418 87 389 131H385Q386 121 387 110Q388 100 388 87T389 59V0H143V1454ZM395 516Q395 455 411 398T459 295T541 223T655 195Q709 195 757 216T840 279T897 380T918 518Q918 593 899 653T846 756T763 822T657 846Q606 846 559 827T476 768T417 666T395 516Z"  />
<glyph unicode="c" horiz-adv-x="1116" d="M68 522Q68 633 108 732T222 907T400 1025T635 1069Q686 1069 730 1063T812 1045T881 1020T937 991Q995 957 1036 913L922 735Q889 766 847 791Q811 812 761 830T649 848Q577 848 519 823T419 753T355 650T332 524Q332 458 355 399T420 295T523 224T657 197Q723 197 779 217T877 263Q925 292 965 330L1065 145Q1018 97 955 60Q928 44 894 29T820 1T734 -18T635 -25Q505 -25 401 18T222 135T108 308T68 522Z"  />
<glyph unicode="d" horiz-adv-x="1251" d="M72 522Q72 646 107 747T204 920T354 1030T545 1069Q631 1069 688 1048T781 1002Q822 973 846 936H850Q849 943 849 953Q848 961 848 972T848 995V1454H1108V0H862V86Q862 100 862 113T864 135Q865 146 866 154H862Q834 104 788 64Q749 30 687 3T535 -25Q429 -25 344 15T198 127T105 300T72 522ZM334 522Q334 448 353 388T406 284T488 218T594 195Q645 195 692 214T775 273T834 375T856 524Q856 585 840 643T792 746T710 818T596 846Q542 846 495 825T412 762T355 660T334 522Z"  />
<glyph unicode="e" horiz-adv-x="1135" d="M70 522Q70 643 109 743T218 916T386 1029T600 1069Q713 1069 799 1031T944 925T1033 768T1063 573Q1063 562 1062 545T1060 512Q1058 494 1057 473H336Q342 405 370 353T440 267T537 215T649 197Q712 197 766 214T862 254Q910 279 950 311L1051 125Q1001 83 938 50Q883 21 806 -2T631 -25Q501 -25 397 18T221 137T109 311T70 522ZM801 651Q799 704 783 744T739 812T674 854T594 868Q494 868 429 811T344 651H801Z"  />
<glyph unicode="f" horiz-adv-x="711" d="M197 821H68V1028H197V1075Q197 1160 218 1222T275 1327T355 1396T447 1437T540 1457T623 1462Q643 1462 659 1461T687 1459Q700 1457 711 1456V1235Q705 1236 696 1237Q688 1238 678 1238T657 1239Q630 1239 595 1234T530 1211T478 1160T457 1069V1028H680V821H457V0H197V821Z"  />
<glyph unicode="g" horiz-adv-x="1237" d="M250 -141Q288 -160 335 -175Q374 -188 426 -198T539 -209Q599 -209 652 -196T746 -152T810 -74T834 45V106Q834 115 834 125T836 143Q837 153 838 162H834Q787 93 718 57T543 20Q431 20 344 62T196 177T105 345T74 549Q74 657 104 751T192 916T337 1028T537 1069Q622 1069 681 1048T777 1002Q820 973 846 936H852Q851 940 851 944Q850 949 850 965V1044H1094V63Q1094 -27 1072 -98T1012 -224T921 -318T807 -382T679 -418T543 -430Q494 -430 444 -424T346 -405T254 -377T172 -340L250 -141ZM598 240Q645 240 688 255T766 305T820 399T840 547Q840 636 820 694T764 786T682 834T582 848Q523 848 477 828T400 769T352 677T336 557Q336 489 353 431T404 331T486 264T598 240Z"  />
<glyph unicode="h" horiz-adv-x="1255" d="M143 1454H403V950Q403 930 403 915T401 887Q400 873 399 862H403Q422 900 455 937T534 1003T638 1051T764 1069Q851 1069 918 1046T1031 974T1102 850T1126 672V0H868V618Q868 666 861 705T836 772T785 815T702 831Q651 831 606 815T525 770T462 702T420 614Q411 583 407 550T403 479V0H143V1454Z"  />
<glyph unicode="i" horiz-adv-x="547" d="M143 1454H401V1223H143V1454ZM143 1044H403V0H143V1044Z"  />
<glyph unicode="j" horiz-adv-x="547" d="M143 1454H401V1223H143V1454ZM403 1044V-31Q403 -119 381 -182T322 -288T239 -358T144 -399T50 -419T-33 -424Q-70 -424 -91 -421Q-103 -420 -113 -418V-199Q-107 -200 -100 -201Q-94 -202 -86 -202T-68 -203Q-50 -203 -27 -201T19 -191T65 -170T104 -136T132 -83T143 -10V1044H403Z"  />
<glyph unicode="k" horiz-adv-x="1130" d="M143 1454H403V676H532L784 1044H1073L743 578V573L1114 0H815L539 457H403V0H143V1454Z"  />
<glyph unicode="l" horiz-adv-x="582" d="M129 1454H387V365Q387 322 394 294T415 250T448 228T494 221Q502 221 508 221T520 222Q526 222 532 223V-4Q521 -6 508 -7Q485 -10 451 -10Q397 -10 340 0T236 46T159 147T129 326V1454Z"  />
<glyph unicode="m" horiz-adv-x="1870" d="M143 1044H393V924Q393 909 393 896T391 873Q390 862 389 852H393Q412 890 444 929T520 999T617 1049T733 1069Q854 1069 930 1015T1038 854H1042Q1064 896 1099 935T1181 1004T1282 1051T1399 1069Q1562 1069 1651 973T1741 672V0H1481V623Q1481 667 1476 705T1455 771T1411 815T1337 831Q1287 831 1246 813T1173 762T1119 686T1085 594Q1077 563 1075 530T1073 459V0H813V623Q813 665 809 702T789 768T746 814T672 831Q621 831 580 813T506 762T451 686T416 592Q408 563 406 529T403 459V0H143V1044Z"  />
<glyph unicode="n" horiz-adv-x="1255" d="M143 1044H393V924Q393 909 393 896T391 873Q390 862 389 852H393Q410 885 440 923T516 993T623 1047T764 1069Q851 1069 918 1046T1031 974T1102 850T1126 672V0H868V618Q868 666 861 705T836 772T785 815T702 831Q650 831 605 816T525 772T463 704T422 618Q411 586 407 551T403 479V0H143V1044Z"  />
<glyph unicode="o" horiz-adv-x="1280" d="M66 522Q66 642 111 742T233 915T415 1028T639 1069Q759 1069 863 1029T1046 916T1169 743T1214 522Q1214 402 1169 302T1047 129T865 16T641 -25Q521 -25 417 15T234 128T111 301T66 522ZM330 522Q330 449 354 389T421 287T520 221T641 197Q704 197 760 220T858 286T925 389T950 522Q950 594 926 654T859 757T760 824T641 848Q577 848 521 824T422 757T355 654T330 522Z"  />
<glyph unicode="p" horiz-adv-x="1251" d="M143 1044H381V969Q381 954 381 941T379 918Q378 907 377 897H381Q410 945 457 983Q477 999 502 1014T560 1042T632 1061T717 1069Q823 1069 908 1029T1054 917T1147 744T1180 522Q1180 397 1144 296T1044 124T893 14T702 -25Q624 -25 568 -3T475 47Q432 79 403 119H399Q400 108 401 94Q402 82 402 66T403 29V-410H143V1044ZM395 516Q395 455 411 398T460 295T541 223T655 195Q709 195 757 216T840 279T897 380T918 518Q918 593 899 653T846 756T763 822T657 846Q606 846 559 827T476 768T417 666T395 516Z"  />
<glyph unicode="q" horiz-adv-x="1251" d="M72 522Q72 646 107 747T204 920T354 1030T545 1069Q588 1069 624 1063T690 1046T745 1021T789 993Q834 960 862 918H866Q865 925 864 936Q863 945 863 957T862 985V1044H1108V-410H848V41Q848 61 848 77T850 106Q851 120 852 131H848Q820 87 776 53Q757 38 733 24T679 -1T613 -18T535 -25Q429 -25 344 15T198 127T105 300T72 522ZM334 522Q334 448 353 388T406 284T488 218T594 195Q645 195 692 214T775 273T834 375T856 524Q856 585 840 643T792 746T710 818T596 846Q542 846 495 825T412 762T355 660T334 522Z"  />
<glyph unicode="r" horiz-adv-x="805" d="M143 1044H393V864Q393 849 393 836T391 813Q390 802 389 791H393Q411 847 442 896T516 981T612 1038T725 1059Q734 1059 742 1059T758 1057Q766 1056 772 1055V799Q764 800 754 801Q746 802 735 802T711 803Q669 803 627 791T546 752T476 684T426 584Q414 545 409 503T403 414V0H143V1044Z"  />
<glyph unicode="s" horiz-adv-x="926" d="M174 311Q209 279 253 254Q291 232 343 215T459 197Q486 197 511 203T555 221T585 250T596 291Q596 320 574 342T517 383T436 419T342 458T249 506T168 568T110 651T88 762Q88 835 118 892T203 988T330 1048T487 1069Q576 1069 641 1051T751 1009Q802 983 838 950L741 758Q712 783 673 803Q640 820 593 834T485 848Q460 848 436 843T394 826T364 796T352 754Q352 726 374 705T431 666T512 631T606 592T699 545T780 483T838 400T860 289Q860 224 833 167T754 67T628 0T461 -25Q363 -25 288 -1T160 52Q99 85 55 129L174 311Z"  />
<glyph unicode="t" horiz-adv-x="772" d="M188 821H53V1028H195V1329H449V1028H686V821H449V416Q449 351 471 313T525 253T592 226T655 219Q666 219 674 219T689 221Q696 222 702 223V-4Q693 -6 681 -7Q660 -10 623 -10Q586 -10 540 -5T446 14T351 55T268 125T210 232T188 383V821Z"  />
<glyph unicode="u" horiz-adv-x="1247" d="M129 1044H389V426Q389 378 396 339T421 272T471 229T551 213Q621 213 676 242T768 319T824 431T844 565V1044H1104V0H854V119Q854 134 854 147T856 171Q857 182 858 193H854Q835 152 801 113T721 43T617 -6T492 -25Q408 -25 341 -3T227 67T154 190T129 373V1044Z"  />
<glyph unicode="v" horiz-adv-x="1063" d="M0 1044H274L492 397Q499 374 505 347T516 296T524 256T528 240H532Q533 240 536 256T544 295T555 346T569 397L786 1044H1061L686 0H379L0 1044Z"  />
<glyph unicode="w" horiz-adv-x="1681" d="M29 1044H303L485 358Q490 337 494 318T501 282Q504 264 506 248H510Q513 264 517 282Q520 298 524 317T535 358L727 1042H958L1151 358Q1162 316 1168 282Q1172 264 1174 248H1178Q1180 264 1184 282Q1187 298 1191 317T1200 358L1382 1044H1653L1335 0H1047L870 596Q864 616 859 636T851 673Q847 691 844 709H840Q837 691 833 673Q830 657 826 637T815 596L639 0H348L29 1044Z"  />
<glyph unicode="x" horiz-adv-x="1073" d="M535 358Q530 349 526 339Q521 331 516 321T506 303L324 0H35L379 528L43 1044H338L500 760Q506 749 512 738T523 717Q529 706 535 694H539Q544 706 550 717Q555 727 561 738T573 760L735 1044H1030L694 528L1038 0H750L567 303Q562 311 557 321T548 339Q544 349 539 358H535Z"  />
<glyph unicode="y" horiz-adv-x="1067" d="M88 -168Q105 -180 124 -190Q141 -198 161 -204T205 -211Q259 -211 307 -178T385 -76L424 16L-16 1044H276L496 442Q504 421 511 397T523 351Q529 326 535 301H539Q544 325 549 349Q554 369 560 393T573 438L778 1044H1063L596 -158Q568 -229 528 -280T439 -365T334 -414T219 -430Q171 -430 132 -420T64 -396Q30 -381 2 -362L88 -168Z"  />
<glyph unicode="z" horiz-adv-x="1073" d="M72 139L541 727Q558 749 574 766T603 797Q617 812 629 823V827Q619 826 605 825Q593 824 575 824T532 823H92V1044H981V903L512 315Q494 292 478 275T449 245Q434 230 422 219V215L446 218Q458 219 476 220T520 221H995V0H72V139Z"  />
<glyph unicode="{" horiz-adv-x="748" d="M262 344Q262 382 255 411T235 463T207 500T175 527Q136 552 88 557V784Q136 789 175 814Q191 824 206 840T234 879T254 932T262 1001V1178Q262 1256 281 1311T330 1405T400 1467T479 1503T557 1520T625 1524Q639 1524 650 1524T670 1523Q680 1522 688 1522V1329Q683 1329 677 1330Q672 1330 666 1330T651 1331Q630 1331 602 1326T547 1302T502 1250T483 1157V934Q483 895 476 864T457 807T430 762T399 727Q362 693 315 674V670Q362 653 399 620Q415 606 430 587T457 542T476 484T483 412V166Q483 107 501 73T546 20T601 -3T651 -8Q659 -8 665 -8T677 -7Q683 -7 688 -6V-199Q680 -200 670 -201Q662 -202 651 -202T625 -203Q596 -203 558 -199T479 -183T400 -147T331 -85T281 10T262 145V344Z"  />
<glyph unicode="|" horiz-adv-x="594" d="M186 1630H408V-330H186V1630Z"  />
<glyph unicode="}" horiz-adv-x="748" d="M59 -6Q64 -7 70 -7Q75 -8 81 -8T96 -8Q117 -8 145 -3T200 20T244 72T262 166V412Q262 451 269 483T288 541T315 586T347 620Q384 653 432 670V674Q384 693 347 727Q331 742 316 761T288 806T269 863T262 934V1157Q262 1215 244 1249T200 1302T146 1325T96 1331Q88 1331 82 1331T70 1330Q64 1329 59 1329V1522Q67 1522 77 1523Q85 1523 97 1523T123 1524Q152 1524 190 1520T269 1504T348 1468T417 1406T466 1312T485 1178V1001Q485 962 492 932T512 879T539 840T572 814Q610 789 659 784V557Q610 552 572 527Q555 516 540 501T512 463T493 412T485 344V145Q485 67 467 11T418 -84T348 -146T269 -182T191 -199T123 -203Q109 -203 97 -203T77 -201Q67 -200 59 -199V-6Z"  />
<glyph unicode="~" horiz-adv-x="1249" d="M115 408Q115 596 197 688T430 780Q481 780 519 766T588 732T644 687T694 643T746 608T807 594Q841 594 865 609T904 648T927 705T934 772H1139Q1139 583 1058 491T825 399Q774 399 736 412T668 447T612 491T562 536T510 570T449 584Q415 584 391 570T352 531T329 474T322 408H115Z"  />
<glyph unicode="&#xA0;" horiz-adv-x="498" />
<glyph unicode="&#xA1;" horiz-adv-x="625" d="M186 1042H436V801H186V1042ZM199 623H426L446 -410H176L199 623Z"  />
<glyph unicode="&#xA2;" horiz-adv-x="1180" d="M526 152Q428 168 348 218T211 345T123 518T92 727Q92 838 123 935T211 1109T348 1237T526 1305V1477H702V1305Q840 1280 941 1192T1092 973L858 883Q843 920 821 953T769 1011T702 1050T621 1065Q562 1065 513 1040T428 970T374 863T354 727Q354 650 372 588T426 481T510 413T621 389Q664 389 701 403T767 441T820 499T858 571L1092 481Q1069 426 1034 371T949 271T839 193T702 152V-25H526V152Z"  />
<glyph unicode="&#xA3;" horiz-adv-x="1210" d="M135 815H223V1063Q223 1154 258 1230T355 1361T503 1448T690 1479Q773 1479 840 1456T956 1405Q1012 1372 1057 1331L907 1151Q878 1176 845 1195Q816 1212 778 1225T696 1239Q650 1239 613 1225T548 1186T507 1128T492 1055V815H854V637H492V227H1130V0H104V227H223V637H135V815Z"  />
<glyph unicode="&#xA4;" horiz-adv-x="506" d="M253 222Q310 222 341 262T372 365Q372 395 364 421T341 467T304 498T253 509Q224 509 202 498T165 468T141 422T133 365Q133 334 141 308T164 263T202 233T253 222ZM19 168L88 239Q50 294 50 365Q50 436 88 489L19 560L64 603L131 534Q155 552 185 563T253 574Q289 574 320 563T375 534L442 603L487 560L418 489Q455 435 455 365Q455 330 445 298T417 240L487 168L442 125L374 194Q325 157 253 157Q181 157 132 194L64 125L19 168Z"  />
<glyph unicode="&#xA5;" horiz-adv-x="1257" d="M162 862H362L47 1454H348L539 1067Q559 1025 575 985T603 910Q616 870 627 834H631Q642 870 655 910Q666 944 682 984T719 1067L909 1454H1210L895 862H1096V707H815L764 606V539H1096V383H764V0H496V383H162V539H496V606L442 707H162V862Z"  />
<glyph unicode="&#xA7;" horiz-adv-x="963" d="M131 987Q125 1016 121 1046T117 1104Q117 1184 144 1252T225 1371T357 1450T537 1479Q618 1479 681 1459T789 1415Q841 1387 879 1352L762 1186Q734 1208 699 1226Q669 1241 628 1253T539 1266Q494 1266 456 1255T389 1221T344 1161T328 1073Q328 1051 332 1026T342 971L483 283H281L131 987ZM188 174Q218 148 255 129Q287 112 328 98T420 84Q463 84 501 96T568 133T614 198T631 291Q631 316 626 344T612 408L475 1069H680L825 365Q832 337 836 311T840 260Q840 177 814 106T735 -16T603 -97T420 -127Q339 -127 276 -108T168 -65Q116 -38 78 -2L188 174Z"  />
<glyph unicode="&#xA8;" horiz-adv-x="1010" d="M594 1829H793V1591H594V1829ZM217 1829H418V1591H217V1829Z"  />
<glyph unicode="&#xA9;" horiz-adv-x="1657" d="M94 727Q94 831 120 927T194 1106T308 1258T456 1375T631 1450T825 1477Q927 1477 1022 1451T1199 1375T1348 1258T1463 1107T1537 927T1563 727Q1563 623 1537 527T1463 348T1348 195T1199 78T1022 2T825 -25Q724 -25 631 2T457 77T309 195T194 347T120 527T94 727ZM276 727Q276 604 318 497T435 311T609 187T825 141Q943 141 1045 186T1222 311T1339 497T1382 727Q1382 849 1340 955T1222 1141T1045 1265T825 1311Q709 1311 609 1266T435 1141T319 956T276 727ZM453 723Q453 804 481 876T559 1003T680 1090T836 1122Q882 1122 921 1113T992 1088T1049 1054T1094 1014Q1140 966 1167 907L1012 834Q995 867 970 893Q949 915 918 933T842 952Q796 952 759 934T696 885T655 813T641 723Q641 674 654 632T694 560T757 512T842 494Q887 494 919 512T972 553Q997 579 1012 612L1167 541Q1140 480 1094 432Q1074 412 1049 393T992 358T921 334T836 324Q751 324 681 356T560 442T481 569T453 723Z"  />
<glyph unicode="&#xAA;" horiz-adv-x="846" d="M346 784Q305 784 266 797T196 836T146 899T127 985Q127 1040 148 1078T202 1141T277 1180T361 1200T441 1208T506 1210H524V1225Q524 1255 515 1275T490 1308T453 1325T406 1331Q374 1331 344 1323T290 1303Q262 1291 238 1276L172 1397Q200 1418 240 1436Q273 1450 322 1462T434 1475Q568 1475 638 1404T709 1208V797H537V887H532Q516 858 490 835Q467 815 432 800T346 784ZM393 928Q421 928 445 941T486 975T512 1022T522 1075V1090H500Q473 1090 440 1087T379 1074T331 1046T311 997Q311 966 333 947T393 928ZM129 684H715V545H129V684Z"  />
<glyph unicode="&#xAB;" horiz-adv-x="1196" d="M866 999H1114L778 578L1114 158H866L530 578L866 999ZM72 578L408 999H655L319 578L655 158H408L72 578Z"  />
<glyph unicode="&#xAC;" horiz-adv-x="1235" d="M96 895H1096V293H887V694H96V895Z"  />
<glyph unicode="&#xAD;" horiz-adv-x="883" d="M133 698H750V471H133V698Z"  />
<glyph unicode="&#xAE;" horiz-adv-x="1657" d="M94 727Q94 831 120 927T194 1106T308 1258T456 1375T631 1450T825 1477Q927 1477 1022 1451T1199 1375T1348 1258T1463 1107T1537 927T1563 727Q1563 623 1537 527T1463 348T1348 195T1199 78T1022 2T825 -25Q724 -25 631 2T457 77T309 195T194 347T120 527T94 727ZM276 727Q276 604 318 497T435 311T609 187T825 141Q943 141 1045 186T1222 311T1339 497T1382 727Q1382 849 1340 955T1222 1141T1045 1265T825 1311Q709 1311 609 1266T435 1141T319 956T276 727ZM569 1106H881Q936 1106 981 1089T1058 1041T1108 966T1126 868Q1126 824 1113 791T1080 733T1037 694T993 674V670Q995 667 999 662Q1002 657 1007 649T1020 627L1161 356H969L842 633H743V356H569V1106ZM840 756Q891 756 919 786T948 868Q948 922 920 950T842 979H743V756H840Z"  />
<glyph unicode="&#xAF;" horiz-adv-x="1010" d="M238 1782H774V1604H238V1782Z"  />
<glyph unicode="&#xB0;" horiz-adv-x="809" d="M406 836Q336 836 275 861T169 929T98 1030T72 1157Q72 1223 98 1282T169 1385T275 1455T406 1481Q475 1481 535 1455T641 1385T713 1282T739 1157Q739 1089 713 1031T642 929T536 861T406 836ZM406 1022Q434 1022 459 1032T502 1061T532 1103T543 1157Q543 1185 532 1209T503 1252T459 1281T406 1292Q377 1292 353 1282T310 1253T281 1210T270 1157Q270 1128 280 1104T309 1061T352 1033T406 1022Z"  />
<glyph unicode="&#xB1;" horiz-adv-x="1296" d="M100 686H543V1171H754V686H1196V483H754V0H543V483H100V686ZM1169 -174V-375H129V-174H1169Z"  />
<glyph unicode="&#xB2;" horiz-adv-x="809" d="M98 866Q95 888 93 910T90 950Q90 1039 121 1101T200 1210T302 1291T404 1356T482 1421T514 1499Q514 1547 478 1576T387 1606Q352 1606 323 1591T271 1558Q245 1537 225 1511L98 1624Q128 1669 172 1705Q210 1735 266 1760T399 1786Q460 1786 516 1768T616 1714T685 1626T711 1507Q711 1434 682 1381T610 1288T515 1218T418 1160T341 1103T305 1036H723V866H98Z"  />
<glyph unicode="&#xB3;" horiz-adv-x="809" d="M379 846Q301 846 244 867T149 914Q105 944 74 983L176 1120Q198 1093 228 1072Q254 1054 290 1039T375 1024Q405 1024 431 1033T478 1060T510 1101T522 1153Q522 1182 509 1204T473 1240T422 1262T362 1270H291L250 1362L412 1546Q418 1554 426 1562T442 1578Q451 1587 461 1595V1599Q449 1597 437 1596Q426 1594 413 1594T389 1593H125V1765H698V1640L496 1411Q544 1402 585 1381T656 1327T702 1250T719 1151Q719 1092 696 1037T628 940T521 872T379 846Z"  />
<glyph unicode="&#xB4;" horiz-adv-x="1010" d="M449 1829H717L502 1550H293L449 1829Z"  />
<glyph unicode="&#xB5;" horiz-adv-x="1288" d="M158 1044H416V426Q416 378 423 339T448 272T498 229T578 213Q648 213 702 242T794 319T851 431T870 565V1044H1130V0H881V127Q881 138 881 149T883 171Q884 182 885 193H879Q849 132 799 84Q778 63 750 44T688 9T611 -15T518 -25Q479 -25 451 -19T405 -4Q384 6 371 18H367Q370 -11 374 -41Q376 -67 378 -96T381 -152V-410H158V1044Z"  />
<glyph unicode="&#xB6;" horiz-adv-x="1255" d="M555 494Q456 494 369 531T216 633T112 786T74 975Q74 1076 112 1163T215 1315T368 1417T555 1454H1180V1227H743V-102H555V494ZM870 1114H1061V-102H870V1114Z"  />
<glyph unicode="&#xB7;" horiz-adv-x="567" d="M158 727H410V469H158V727Z"  />
<glyph unicode="&#xB8;" horiz-adv-x="1010" d="M551 25V10L528 -90Q559 -94 586 -105T634 -135T666 -182T678 -246Q678 -297 659 -331T609 -387T538 -417T457 -426Q431 -426 408 -424T368 -419Q348 -416 332 -412V-268Q345 -273 359 -277Q371 -280 387 -282T420 -285Q457 -285 483 -272T510 -227Q510 -198 482 -185T412 -172Q403 -172 396 -172T382 -174Q375 -175 369 -176L432 51L551 25Z"  />
<glyph unicode="&#xB9;" horiz-adv-x="809" d="M137 1036H326V1460Q326 1472 326 1482T328 1501Q329 1510 330 1518H326Q323 1512 319 1506Q315 1501 309 1494T295 1479L231 1419L117 1542L348 1765H520V1036H707V866H137V1036Z"  />
<glyph unicode="&#xBA;" horiz-adv-x="936" d="M467 786Q393 786 328 811T214 883T137 993T109 1133Q109 1208 137 1271T214 1379T328 1449T467 1475Q542 1475 607 1450T721 1379T798 1271T827 1133Q827 1057 799 993T722 883T608 812T467 786ZM467 950Q503 950 534 963T590 1001T627 1058T641 1133Q641 1173 628 1206T590 1263T535 1300T467 1313Q432 1313 401 1300T346 1263T309 1206T295 1133Q295 1092 308 1059T345 1001T400 964T467 950ZM139 684H799V545H139V684Z"  />
<glyph unicode="&#xBB;" horiz-adv-x="1198" d="M879 578L543 999H791L1126 578L791 158H543L879 578ZM418 578L82 999H330L666 578L330 158H82L418 578Z"  />
<glyph unicode="&#xBC;" horiz-adv-x="2001" d="M563 0L1251 1454H1440L753 0H563ZM137 727H326V1151Q326 1163 326 1173T328 1192Q329 1201 330 1209H326Q323 1203 319 1197Q315 1192 309 1185T295 1170L231 1110L117 1233L348 1456H520V727H707V557H137V727ZM1633 205H1215V336L1602 901H1823V373H1942V205H1823V2H1633V205ZM1633 373V598Q1633 618 1633 638T1636 675Q1637 693 1639 711H1635Q1628 695 1619 678Q1611 664 1602 647T1582 615L1414 377V373H1633Z"  />
<glyph unicode="&#xBD;" horiz-adv-x="2005" d="M543 0L1231 1454H1420L733 0H543ZM110 727H299V1151Q299 1163 299 1173T301 1192Q302 1201 303 1209H299Q296 1203 292 1197Q288 1192 282 1185T268 1170L204 1110L90 1233L321 1456H493V727H680V557H110V727ZM1259 2Q1256 24 1254 46T1251 86Q1251 175 1282 237T1361 346T1463 427T1565 492T1643 557T1675 635Q1675 683 1639 712T1548 742Q1513 742 1484 727T1432 694Q1406 673 1386 647L1259 760Q1289 805 1333 841Q1371 871 1427 896T1560 922Q1621 922 1677 904T1777 850T1846 762T1872 643Q1872 570 1843 517T1771 424T1676 354T1579 296T1502 239T1466 172H1884V2H1259Z"  />
<glyph unicode="&#xBE;" horiz-adv-x="2019" d="M555 0L1243 1454H1432L745 0H555ZM1624 205H1206V336L1593 901H1814V373H1933V205H1814V2H1624V205ZM1624 373V598Q1624 618 1624 638T1627 675Q1628 693 1630 711H1626Q1619 695 1610 678Q1602 664 1593 647T1573 615L1405 377V373H1624ZM375 537Q297 537 240 558T145 605Q101 635 70 674L172 811Q194 784 224 763Q250 745 286 730T371 715Q401 715 427 724T474 751T506 792T518 844Q518 873 505 895T469 931T418 953T358 961H287L246 1053L408 1237Q414 1245 422 1253T438 1269Q447 1278 457 1286V1290Q445 1288 433 1287Q422 1285 409 1285T385 1284H121V1456H694V1331L492 1102Q540 1093 581 1072T652 1018T698 941T715 842Q715 783 692 728T624 631T517 563T375 537Z"  />
<glyph unicode="&#xBF;" horiz-adv-x="940" d="M424 1044H674V803H424V1044ZM66 -45Q66 39 92 100T159 210T245 297T331 374T397 455T424 553V625H674V535Q674 461 649 406T587 306T506 224T425 150T363 73T338 -20Q338 -56 353 -88T395 -143T458 -179T537 -193Q581 -193 620 -180T689 -149Q724 -130 754 -104L899 -285Q855 -326 797 -358Q747 -385 676 -407T514 -430Q427 -430 347 -404T204 -329T104 -209T66 -45Z"  />
<glyph unicode="&#xC0;" horiz-adv-x="1305" d="M907 373H397L274 0H2L514 1454H791L1303 0H1030L907 373ZM651 1202Q642 1160 631 1120Q622 1085 612 1047T590 977L461 588H842L713 977Q702 1008 692 1046T674 1120Q664 1160 655 1202H651ZM340 1829H608L764 1550H553L340 1829Z"  />
<glyph unicode="&#xC1;" horiz-adv-x="1305" d="M907 373H397L274 0H2L514 1454H791L1303 0H1030L907 373ZM651 1202Q642 1160 631 1120Q622 1085 612 1047T590 977L461 588H842L713 977Q702 1008 692 1046T674 1120Q664 1160 655 1202H651ZM697 1829H965L750 1550H541L697 1829Z"  />
<glyph unicode="&#xC2;" horiz-adv-x="1305" d="M907 373H397L274 0H2L514 1454H791L1303 0H1030L907 373ZM651 1202Q642 1160 631 1120Q622 1085 612 1047T590 977L461 588H842L713 977Q702 1008 692 1046T674 1120Q664 1160 655 1202H651ZM522 1829H782L972 1550H757L655 1716H651L548 1550H333L522 1829Z"  />
<glyph unicode="&#xC3;" horiz-adv-x="1305" d="M907 373H397L274 0H2L514 1454H791L1303 0H1030L907 373ZM651 1202Q642 1160 631 1120Q622 1085 612 1047T590 977L461 588H842L713 977Q702 1008 692 1046T674 1120Q664 1160 655 1202H651ZM280 1552Q280 1833 509 1833Q543 1833 570 1823T619 1799T659 1767T694 1735T729 1710T768 1700Q789 1700 804 1710T828 1738T842 1779T847 1827H1024Q1024 1687 968 1617T794 1546Q760 1546 734 1556T685 1580T645 1612T610 1644T575 1669T536 1679Q515 1679 500 1669T476 1641T462 1601T458 1552H280Z"  />
<glyph unicode="&#xC4;" horiz-adv-x="1305" d="M907 373H397L274 0H2L514 1454H791L1303 0H1030L907 373ZM651 1202Q642 1160 631 1120Q622 1085 612 1047T590 977L461 588H842L713 977Q702 1008 692 1046T674 1120Q664 1160 655 1202H651ZM741 1829H940V1591H741V1829ZM364 1829H565V1591H364V1829Z"  />
<glyph unicode="&#xC5;" horiz-adv-x="1305" d="M907 373H397L274 0H2L514 1454H791L1303 0H1030L907 373ZM651 1202Q642 1160 631 1120Q622 1085 612 1047T590 977L461 588H842L713 977Q702 1008 692 1046T674 1120Q664 1160 655 1202H651ZM653 1526Q616 1526 581 1536T519 1566T475 1617T458 1686Q458 1726 474 1756T518 1806T581 1836T653 1847Q689 1847 723 1837T785 1806T828 1756T845 1686Q845 1647 829 1617T785 1567T724 1536T653 1526ZM653 1616Q684 1616 703 1635T722 1686Q722 1718 703 1737T653 1757Q622 1757 603 1738T583 1686Q583 1655 602 1636T653 1616Z"  />
<glyph unicode="&#xC6;" horiz-adv-x="1849" d="M596 1454H1729V1227H1120V846H1612V618H1120V227H1759V0H858V623H512L266 0H-8L596 1454ZM596 838H858V1227H750L596 838Z"  />
<glyph unicode="&#xC7;" horiz-adv-x="1470" d="M88 733Q88 891 144 1027T301 1264T538 1422T836 1479Q902 1479 960 1471T1069 1448T1161 1416T1237 1379Q1316 1335 1372 1280L1245 1083Q1195 1126 1133 1160Q1080 1189 1008 1213T848 1237Q733 1237 643 1197T489 1089T393 930T360 737Q360 633 394 539T491 374T645 260T850 217Q897 217 940 225T1022 246T1093 275T1155 309Q1220 349 1272 401L1411 211Q1353 150 1274 100Q1240 79 1198 58T1107 20T1000 -8T877 -23L862 -90Q893 -94 920 -105T968 -135T1000 -182T1012 -246Q1012 -297 993 -331T943 -387T872 -417T791 -426Q765 -426 742 -424T702 -419Q682 -416 666 -412V-268Q679 -273 693 -277Q705 -280 721 -282T754 -285Q791 -285 817 -272T844 -227Q844 -198 816 -185T745 -172Q737 -172 729 -172T715 -174Q708 -175 702 -176L745 -18Q598 -3 477 60T269 224T136 454T88 733Z"  />
<glyph unicode="&#xC8;" horiz-adv-x="1178" d="M184 1454H1055V1227H449V846H938V618H449V227H1087V0H184V1454ZM328 1829H596L752 1550H541L328 1829Z"  />
<glyph unicode="&#xC9;" horiz-adv-x="1178" d="M184 1454H1055V1227H449V846H938V618H449V227H1087V0H184V1454ZM685 1829H953L738 1550H529L685 1829Z"  />
<glyph unicode="&#xCA;" horiz-adv-x="1178" d="M184 1454H1055V1227H449V846H938V618H449V227H1087V0H184V1454ZM510 1829H770L960 1550H745L643 1716H639L536 1550H321L510 1829Z"  />
<glyph unicode="&#xCB;" horiz-adv-x="1178" d="M184 1454H1055V1227H449V846H938V618H449V227H1087V0H184V1454ZM729 1829H928V1591H729V1829ZM352 1829H553V1591H352V1829Z"  />
<glyph unicode="&#xCC;" horiz-adv-x="633" d="M184 1454H449V0H184V1454ZM8 1829H276L432 1550H221L8 1829Z"  />
<glyph unicode="&#xCD;" horiz-adv-x="633" d="M184 1454H449V0H184V1454ZM363 1829H631L416 1550H207L363 1829Z"  />
<glyph unicode="&#xCE;" horiz-adv-x="633" d="M184 1454H449V0H184V1454ZM189 1829H449L639 1550H424L322 1716H318L215 1550H0L189 1829Z"  />
<glyph unicode="&#xCF;" horiz-adv-x="633" d="M184 1454H449V0H184V1454ZM410 1829H609V1591H410V1829ZM33 1829H234V1591H33V1829Z"  />
<glyph unicode="&#xD0;" horiz-adv-x="1552" d="M104 831H223V1454H719Q887 1454 1024 1406T1257 1264T1407 1036T1460 729Q1460 557 1407 422T1258 193T1024 50T719 0H223V616H104V831ZM705 227Q815 227 904 259T1057 355T1154 512T1188 729Q1188 850 1154 943T1056 1099T903 1194T705 1227H487V831H758V616H487V227H705Z"  />
<glyph unicode="&#xD1;" horiz-adv-x="1556" d="M184 1454H449L999 614Q1020 582 1041 544T1080 470Q1100 430 1120 389H1124Q1120 429 1117 469Q1114 503 1112 542T1110 614V1454H1372V0H1110L559 838Q538 870 517 908T478 982Q458 1022 438 1063H434Q437 1023 441 983Q444 948 446 909T449 838V0H184V1454ZM407 1552Q407 1833 636 1833Q670 1833 697 1823T746 1799T786 1767T821 1735T856 1710T895 1700Q916 1700 931 1710T955 1738T969 1779T974 1827H1151Q1151 1687 1095 1617T921 1546Q887 1546 861 1556T812 1580T772 1612T737 1644T702 1669T663 1679Q642 1679 627 1669T603 1641T589 1601T585 1552H407Z"  />
<glyph unicode="&#xD2;" horiz-adv-x="1671" d="M84 737Q84 841 110 936T184 1114T299 1264T450 1379T631 1453T836 1479Q943 1479 1040 1453T1220 1379T1372 1264T1487 1115T1561 937T1587 737Q1587 630 1561 532T1488 350T1372 196T1221 77T1040 2T836 -25Q729 -25 632 1T451 77T300 195T184 349T110 532T84 737ZM356 737Q356 625 393 530T496 365T648 256T836 217Q936 217 1023 256T1175 364T1277 529T1315 737Q1315 845 1278 936T1175 1094T1023 1199T836 1237Q736 1237 649 1199T496 1095T394 937T356 737ZM524 1829H792L948 1550H737L524 1829Z"  />
<glyph unicode="&#xD3;" horiz-adv-x="1671" d="M84 737Q84 841 110 936T184 1114T299 1264T450 1379T631 1453T836 1479Q943 1479 1040 1453T1220 1379T1372 1264T1487 1115T1561 937T1587 737Q1587 630 1561 532T1488 350T1372 196T1221 77T1040 2T836 -25Q729 -25 632 1T451 77T300 195T184 349T110 532T84 737ZM356 737Q356 625 393 530T496 365T648 256T836 217Q936 217 1023 256T1175 364T1277 529T1315 737Q1315 845 1278 936T1175 1094T1023 1199T836 1237Q736 1237 649 1199T496 1095T394 937T356 737ZM879 1829H1147L932 1550H723L879 1829Z"  />
<glyph unicode="&#xD4;" horiz-adv-x="1671" d="M84 737Q84 841 110 936T184 1114T299 1264T450 1379T631 1453T836 1479Q943 1479 1040 1453T1220 1379T1372 1264T1487 1115T1561 937T1587 737Q1587 630 1561 532T1488 350T1372 196T1221 77T1040 2T836 -25Q729 -25 632 1T451 77T300 195T184 349T110 532T84 737ZM356 737Q356 625 393 530T496 365T648 256T836 217Q936 217 1023 256T1175 364T1277 529T1315 737Q1315 845 1278 936T1175 1094T1023 1199T836 1237Q736 1237 649 1199T496 1095T394 937T356 737ZM705 1829H965L1155 1550H940L838 1716H834L731 1550H516L705 1829Z"  />
<glyph unicode="&#xD5;" horiz-adv-x="1671" d="M84 737Q84 841 110 936T184 1114T299 1264T450 1379T631 1453T836 1479Q943 1479 1040 1453T1220 1379T1372 1264T1487 1115T1561 937T1587 737Q1587 630 1561 532T1488 350T1372 196T1221 77T1040 2T836 -25Q729 -25 632 1T451 77T300 195T184 349T110 532T84 737ZM356 737Q356 625 393 530T496 365T648 256T836 217Q936 217 1023 256T1175 364T1277 529T1315 737Q1315 845 1278 936T1175 1094T1023 1199T836 1237Q736 1237 649 1199T496 1095T394 937T356 737ZM465 1552Q465 1833 694 1833Q728 1833 755 1823T804 1799T844 1767T879 1735T914 1710T953 1700Q974 1700 989 1710T1013 1738T1027 1779T1032 1827H1209Q1209 1687 1153 1617T979 1546Q945 1546 919 1556T870 1580T830 1612T795 1644T760 1669T721 1679Q700 1679 685 1669T661 1641T647 1601T643 1552H465Z"  />
<glyph unicode="&#xD6;" horiz-adv-x="1671" d="M84 737Q84 841 110 936T184 1114T299 1264T450 1379T631 1453T836 1479Q943 1479 1040 1453T1220 1379T1372 1264T1487 1115T1561 937T1587 737Q1587 630 1561 532T1488 350T1372 196T1221 77T1040 2T836 -25Q729 -25 632 1T451 77T300 195T184 349T110 532T84 737ZM356 737Q356 625 393 530T496 365T648 256T836 217Q936 217 1023 256T1175 364T1277 529T1315 737Q1315 845 1278 936T1175 1094T1023 1199T836 1237Q736 1237 649 1199T496 1095T394 937T356 737ZM926 1829H1125V1591H926V1829ZM549 1829H750V1591H549V1829Z"  />
<glyph unicode="&#xD7;" horiz-adv-x="1274" d="M500 586L96 1028L238 1171L637 733L1036 1171L1178 1028L772 586L1178 141L1036 0L637 438L238 0L96 141L500 586Z"  />
<glyph unicode="&#xD8;" horiz-adv-x="1679" d="M90 737Q90 841 116 936T190 1114T305 1264T456 1379T637 1453T842 1479Q945 1479 1039 1454T1217 1384L1305 1507L1421 1427L1333 1305Q1393 1254 1441 1191T1523 1056T1575 904T1593 737Q1593 630 1567 532T1494 350T1378 196T1227 77T1046 2T842 -25Q732 -25 634 2T451 80L354 -53L238 27L338 164Q222 269 156 416T90 737ZM1321 737Q1321 846 1284 937T1182 1094L598 285Q652 253 713 235T842 217Q942 217 1029 256T1181 364T1283 529T1321 737ZM362 737Q362 629 395 538T489 377L1069 1180Q1018 1208 961 1222T842 1237Q742 1237 655 1199T502 1095T400 937T362 737Z"  />
<glyph unicode="&#xD9;" horiz-adv-x="1501" d="M164 1454H428V522Q428 449 451 393T516 297T617 238T750 217Q823 217 882 237T984 297T1050 393T1073 524V1454H1337V522Q1337 400 1295 300T1176 127T991 15T752 -25Q620 -25 512 15T326 127T206 299T164 522V1454ZM438 1829H706L862 1550H651L438 1829Z"  />
<glyph unicode="&#xDA;" horiz-adv-x="1501" d="M164 1454H428V522Q428 449 451 393T516 297T617 238T750 217Q823 217 882 237T984 297T1050 393T1073 524V1454H1337V522Q1337 400 1295 300T1176 127T991 15T752 -25Q620 -25 512 15T326 127T206 299T164 522V1454ZM793 1829H1061L846 1550H637L793 1829Z"  />
<glyph unicode="&#xDB;" horiz-adv-x="1501" d="M164 1454H428V522Q428 449 451 393T516 297T617 238T750 217Q823 217 882 237T984 297T1050 393T1073 524V1454H1337V522Q1337 400 1295 300T1176 127T991 15T752 -25Q620 -25 512 15T326 127T206 299T164 522V1454ZM619 1829H879L1069 1550H854L752 1716H748L645 1550H430L619 1829Z"  />
<glyph unicode="&#xDC;" horiz-adv-x="1501" d="M164 1454H428V522Q428 449 451 393T516 297T617 238T750 217Q823 217 882 237T984 297T1050 393T1073 524V1454H1337V522Q1337 400 1295 300T1176 127T991 15T752 -25Q620 -25 512 15T326 127T206 299T164 522V1454ZM840 1829H1039V1591H840V1829ZM463 1829H664V1591H463V1829Z"  />
<glyph unicode="&#xDD;" horiz-adv-x="1239" d="M487 608L4 1454H303L530 1026Q548 992 563 957T591 894T610 848T618 831H623Q635 862 649 895Q661 923 677 957T711 1026L936 1454H1235L752 608V0H487V608ZM664 1829H932L717 1550H508L664 1829Z"  />
<glyph unicode="&#xDE;" horiz-adv-x="1260" d="M184 1454H446V1219H743Q845 1219 930 1185T1077 1088T1172 939T1206 745Q1206 639 1172 552T1077 401T931 303T743 268H446V0H184V1454ZM694 496Q752 496 797 513T874 563T922 642T938 745Q938 860 876 925T698 991H446V496H694Z"  />
<glyph unicode="&#xDF;" horiz-adv-x="1237" d="M143 1083Q143 1180 183 1254T290 1378T441 1453T616 1479Q704 1479 781 1452T916 1378T1007 1265T1040 1122Q1040 1075 1027 1039T993 973T948 917T904 867T870 817T856 762Q856 732 880 706T942 651T1022 592T1102 520T1163 430T1188 315Q1188 232 1158 171T1076 68T958 7T819 -14Q748 -14 696 -6T610 12Q570 23 543 39V260Q574 244 612 233Q644 223 687 215T780 207Q808 207 834 213T881 234T914 272T926 330Q926 364 902 393T840 451T760 510T680 576T619 656T594 756Q594 796 607 829T641 892T686 947T730 1001T764 1056T778 1118Q778 1145 767 1170T735 1214T682 1245T608 1257Q569 1257 532 1246T467 1212T421 1152T403 1065V0H143V1083Z"  />
<glyph unicode="&#xE0;" horiz-adv-x="1094" d="M55 301Q55 384 89 442T177 540T300 602T438 637T569 652T674 655H709V670Q709 721 694 756T652 813T588 844T508 854Q451 854 400 839T308 804Q261 782 221 754L123 940Q173 976 235 1004Q289 1028 363 1048T532 1069Q635 1069 716 1042T852 961T937 830T967 653V0H727V86Q727 101 727 114T729 138Q730 149 731 160H727Q727 160 721 147T699 112T658 68T598 23T516 -11T410 -25Q340 -25 276 -4T162 59T84 162T55 301ZM317 313Q317 287 327 263T356 220T405 190T475 178Q526 178 569 203T644 268T693 356T711 453V477H666Q632 477 594 475T516 467T441 450T378 421T334 376T317 313ZM234 1454H502L658 1175H447L234 1454Z"  />
<glyph unicode="&#xE1;" horiz-adv-x="1094" d="M55 301Q55 384 89 442T177 540T300 602T438 637T569 652T674 655H709V670Q709 721 694 756T652 813T588 844T508 854Q451 854 400 839T308 804Q261 782 221 754L123 940Q173 976 235 1004Q289 1028 363 1048T532 1069Q635 1069 716 1042T852 961T937 830T967 653V0H727V86Q727 101 727 114T729 138Q730 149 731 160H727Q727 160 721 147T699 112T658 68T598 23T516 -11T410 -25Q340 -25 276 -4T162 59T84 162T55 301ZM317 313Q317 287 327 263T356 220T405 190T475 178Q526 178 569 203T644 268T693 356T711 453V477H666Q632 477 594 475T516 467T441 450T378 421T334 376T317 313ZM584 1454H852L637 1175H428L584 1454Z"  />
<glyph unicode="&#xE2;" horiz-adv-x="1094" d="M55 301Q55 384 89 442T177 540T300 602T438 637T569 652T674 655H709V670Q709 721 694 756T652 813T588 844T508 854Q451 854 400 839T308 804Q261 782 221 754L123 940Q173 976 235 1004Q289 1028 363 1048T532 1069Q635 1069 716 1042T852 961T937 830T967 653V0H727V86Q727 101 727 114T729 138Q730 149 731 160H727Q727 160 721 147T699 112T658 68T598 23T516 -11T410 -25Q340 -25 276 -4T162 59T84 162T55 301ZM317 313Q317 287 327 263T356 220T405 190T475 178Q526 178 569 203T644 268T693 356T711 453V477H666Q632 477 594 475T516 467T441 450T378 421T334 376T317 313ZM410 1454H670L860 1175H645L543 1341H539L436 1175H221L410 1454Z"  />
<glyph unicode="&#xE3;" horiz-adv-x="1094" d="M55 301Q55 384 89 442T177 540T300 602T438 637T569 652T674 655H709V670Q709 721 694 756T652 813T588 844T508 854Q451 854 400 839T308 804Q261 782 221 754L123 940Q173 976 235 1004Q289 1028 363 1048T532 1069Q635 1069 716 1042T852 961T937 830T967 653V0H727V86Q727 101 727 114T729 138Q730 149 731 160H727Q727 160 721 147T699 112T658 68T598 23T516 -11T410 -25Q340 -25 276 -4T162 59T84 162T55 301ZM317 313Q317 287 327 263T356 220T405 190T475 178Q526 178 569 203T644 268T693 356T711 453V477H666Q632 477 594 475T516 467T441 450T378 421T334 376T317 313ZM170 1177Q170 1458 399 1458Q433 1458 460 1448T509 1424T549 1392T584 1360T619 1335T658 1325Q679 1325 694 1335T718 1363T732 1404T737 1452H914Q914 1312 858 1242T684 1171Q650 1171 624 1181T575 1205T535 1237T500 1269T465 1294T426 1304Q405 1304 390 1294T366 1266T352 1226T348 1177H170Z"  />
<glyph unicode="&#xE4;" horiz-adv-x="1094" d="M55 301Q55 384 89 442T177 540T300 602T438 637T569 652T674 655H709V670Q709 721 694 756T652 813T588 844T508 854Q451 854 400 839T308 804Q261 782 221 754L123 940Q173 976 235 1004Q289 1028 363 1048T532 1069Q635 1069 716 1042T852 961T937 830T967 653V0H727V86Q727 101 727 114T729 138Q730 149 731 160H727Q727 160 721 147T699 112T658 68T598 23T516 -11T410 -25Q340 -25 276 -4T162 59T84 162T55 301ZM317 313Q317 287 327 263T356 220T405 190T475 178Q526 178 569 203T644 268T693 356T711 453V477H666Q632 477 594 475T516 467T441 450T378 421T334 376T317 313ZM631 1454H830V1216H631V1454ZM254 1454H455V1216H254V1454Z"  />
<glyph unicode="&#xE5;" horiz-adv-x="1094" d="M55 301Q55 384 89 442T177 540T300 602T438 637T569 652T674 655H709V670Q709 721 694 756T652 813T588 844T508 854Q451 854 400 839T308 804Q261 782 221 754L123 940Q173 976 235 1004Q289 1028 363 1048T532 1069Q635 1069 716 1042T852 961T937 830T967 653V0H727V86Q727 101 727 114T729 138Q730 149 731 160H727Q727 160 721 147T699 112T658 68T598 23T516 -11T410 -25Q340 -25 276 -4T162 59T84 162T55 301ZM317 313Q317 287 327 263T356 220T405 190T475 178Q526 178 569 203T644 268T693 356T711 453V477H666Q632 477 594 475T516 467T441 450T378 421T334 376T317 313ZM541 1151Q504 1151 469 1161T407 1191T363 1242T346 1311Q346 1351 362 1381T406 1431T469 1461T541 1472Q577 1472 611 1462T673 1431T716 1381T733 1311Q733 1272 717 1242T673 1192T612 1161T541 1151ZM541 1241Q572 1241 591 1260T610 1311Q610 1343 591 1362T541 1382Q510 1382 491 1363T471 1311Q471 1280 490 1261T541 1241Z"  />
<glyph unicode="&#xE6;" horiz-adv-x="1747" d="M55 301Q55 381 87 439T171 536T290 598T426 634T560 651T674 655H709V670Q709 721 694 756T651 813T587 844T506 854Q450 854 399 839T307 804Q260 782 219 754L123 938Q170 974 232 1003Q285 1028 358 1048T524 1069Q593 1069 646 1059T740 1028T812 980T864 915H868Q930 991 1017 1030T1217 1069Q1328 1069 1413 1029T1557 920T1645 758T1675 557Q1675 546 1675 533T1673 507Q1672 492 1671 477H956Q963 404 990 352T1058 265T1152 214T1264 197Q1327 197 1381 214T1476 253Q1524 278 1563 309L1665 125Q1615 83 1552 50Q1497 21 1420 -2T1245 -25Q1089 -25 981 36T807 205H803Q798 193 785 171T750 124T697 73T625 25T530 -9T412 -23Q340 -23 275 -1T161 62T84 164T55 301ZM1415 655Q1413 707 1397 746T1353 812T1289 852T1212 866Q1113 866 1049 814T965 655H1415ZM317 313Q317 286 327 262T356 219T406 189T477 178Q530 178 573 203T648 268T696 357T713 455V477H639Q587 477 530 471T426 446T348 396T317 313Z"  />
<glyph unicode="&#xE7;" horiz-adv-x="1118" d="M70 522Q70 633 110 732T224 907T402 1025T637 1069Q688 1069 732 1063T814 1045T883 1020T939 991Q997 957 1038 913L924 735Q891 766 849 791Q813 812 763 830T651 848Q579 848 521 823T421 753T357 650T334 524Q334 458 357 399T422 295T525 224T659 197Q725 197 781 217T879 263Q927 292 967 330L1067 145Q1024 101 965 66Q940 51 909 36T841 9T761 -12T670 -23L655 -90Q686 -94 713 -105T761 -135T793 -182T805 -246Q805 -297 786 -331T736 -387T665 -417T584 -426Q558 -426 535 -424T495 -419Q475 -416 459 -412V-268Q472 -273 486 -277Q498 -280 514 -282T547 -285Q584 -285 610 -272T637 -227Q637 -198 609 -185T539 -172Q530 -172 523 -172T509 -174Q502 -175 496 -176L539 -16Q431 -1 344 46T196 164T103 327T70 522Z"  />
<glyph unicode="&#xE8;" horiz-adv-x="1135" d="M70 522Q70 643 109 743T218 916T386 1029T600 1069Q713 1069 799 1031T944 925T1033 768T1063 573Q1063 562 1062 545T1060 512Q1058 494 1057 473H336Q342 405 370 353T440 267T537 215T649 197Q712 197 766 214T862 254Q910 279 950 311L1051 125Q1001 83 938 50Q883 21 806 -2T631 -25Q501 -25 397 18T221 137T109 311T70 522ZM801 651Q799 704 783 744T739 812T674 854T594 868Q494 868 429 811T344 651H801ZM287 1454H555L711 1175H500L287 1454Z"  />
<glyph unicode="&#xE9;" horiz-adv-x="1135" d="M70 522Q70 643 109 743T218 916T386 1029T600 1069Q713 1069 799 1031T944 925T1033 768T1063 573Q1063 562 1062 545T1060 512Q1058 494 1057 473H336Q342 405 370 353T440 267T537 215T649 197Q712 197 766 214T862 254Q910 279 950 311L1051 125Q1001 83 938 50Q883 21 806 -2T631 -25Q501 -25 397 18T221 137T109 311T70 522ZM801 651Q799 704 783 744T739 812T674 854T594 868Q494 868 429 811T344 651H801ZM637 1454H905L690 1175H481L637 1454Z"  />
<glyph unicode="&#xEA;" horiz-adv-x="1135" d="M70 522Q70 643 109 743T218 916T386 1029T600 1069Q713 1069 799 1031T944 925T1033 768T1063 573Q1063 562 1062 545T1060 512Q1058 494 1057 473H336Q342 405 370 353T440 267T537 215T649 197Q712 197 766 214T862 254Q910 279 950 311L1051 125Q1001 83 938 50Q883 21 806 -2T631 -25Q501 -25 397 18T221 137T109 311T70 522ZM801 651Q799 704 783 744T739 812T674 854T594 868Q494 868 429 811T344 651H801ZM463 1454H723L913 1175H698L596 1341H592L489 1175H274L463 1454Z"  />
<glyph unicode="&#xEB;" horiz-adv-x="1135" d="M70 522Q70 643 109 743T218 916T386 1029T600 1069Q713 1069 799 1031T944 925T1033 768T1063 573Q1063 562 1062 545T1060 512Q1058 494 1057 473H336Q342 405 370 353T440 267T537 215T649 197Q712 197 766 214T862 254Q910 279 950 311L1051 125Q1001 83 938 50Q883 21 806 -2T631 -25Q501 -25 397 18T221 137T109 311T70 522ZM801 651Q799 704 783 744T739 812T674 854T594 868Q494 868 429 811T344 651H801ZM684 1454H883V1216H684V1454ZM307 1454H508V1216H307V1454Z"  />
<glyph unicode="&#xEC;" horiz-adv-x="547" d="M-37 1454H231L387 1175H176L-37 1454ZM143 1044H403V0H143V1044Z"  />
<glyph unicode="&#xED;" horiz-adv-x="547" d="M318 1454H586L371 1175H162L318 1454ZM143 1044H403V0H143V1044Z"  />
<glyph unicode="&#xEE;" horiz-adv-x="547" d="M143 1044H403V0H143V1044ZM144 1454H404L594 1175H379L277 1341H273L170 1175H-45L144 1454Z"  />
<glyph unicode="&#xEF;" horiz-adv-x="547" d="M365 1454H564V1216H365V1454ZM-12 1454H189V1216H-12V1454ZM143 1044H403V0H143V1044Z"  />
<glyph unicode="&#xF0;" horiz-adv-x="1198" d="M68 485Q68 576 100 660T193 809T344 913T549 952Q598 952 637 943T703 922Q735 909 758 893H762Q733 958 684 1013T569 1110L190 946L178 1100L406 1200Q349 1228 288 1248T170 1282L242 1487Q359 1461 472 1419T684 1317L987 1446L999 1294L819 1214Q882 1159 934 1092T1022 944T1079 770T1100 569Q1100 499 1088 428T1048 291T979 168T877 67T741 0T567 -25Q447 -25 355 18T198 132T101 295T68 485ZM330 479Q330 425 345 374T390 284T465 220T573 195Q645 195 695 224T777 301T823 406T838 522Q838 571 821 613T773 685T697 733T596 750Q528 750 478 727T395 666T346 579T330 479Z"  />
<glyph unicode="&#xF1;" horiz-adv-x="1255" d="M143 1044H393V924Q393 909 393 896T391 873Q390 862 389 852H393Q410 885 440 923T516 993T623 1047T764 1069Q851 1069 918 1046T1031 974T1102 850T1126 672V0H868V618Q868 666 861 705T836 772T785 815T702 831Q650 831 605 816T525 772T463 704T422 618Q411 586 407 551T403 479V0H143V1044ZM276 1177Q276 1458 505 1458Q539 1458 566 1448T615 1424T655 1392T690 1360T725 1335T764 1325Q785 1325 800 1335T824 1363T838 1404T843 1452H1020Q1020 1312 964 1242T790 1171Q756 1171 730 1181T681 1205T641 1237T606 1269T571 1294T532 1304Q511 1304 496 1294T472 1266T458 1226T454 1177H276Z"  />
<glyph unicode="&#xF2;" horiz-adv-x="1280" d="M66 522Q66 642 111 742T233 915T415 1028T639 1069Q759 1069 863 1029T1046 916T1169 743T1214 522Q1214 402 1169 302T1047 129T865 16T641 -25Q521 -25 417 15T234 128T111 301T66 522ZM330 522Q330 449 354 389T421 287T520 221T641 197Q704 197 760 220T858 286T925 389T950 522Q950 594 926 654T859 757T760 824T641 848Q577 848 521 824T422 757T355 654T330 522ZM328 1454H596L752 1175H541L328 1454Z"  />
<glyph unicode="&#xF3;" horiz-adv-x="1280" d="M66 522Q66 642 111 742T233 915T415 1028T639 1069Q759 1069 863 1029T1046 916T1169 743T1214 522Q1214 402 1169 302T1047 129T865 16T641 -25Q521 -25 417 15T234 128T111 301T66 522ZM330 522Q330 449 354 389T421 287T520 221T641 197Q704 197 760 220T858 286T925 389T950 522Q950 594 926 654T859 757T760 824T641 848Q577 848 521 824T422 757T355 654T330 522ZM685 1454H953L738 1175H529L685 1454Z"  />
<glyph unicode="&#xF4;" horiz-adv-x="1280" d="M66 522Q66 642 111 742T233 915T415 1028T639 1069Q759 1069 863 1029T1046 916T1169 743T1214 522Q1214 402 1169 302T1047 129T865 16T641 -25Q521 -25 417 15T234 128T111 301T66 522ZM330 522Q330 449 354 389T421 287T520 221T641 197Q704 197 760 220T858 286T925 389T950 522Q950 594 926 654T859 757T760 824T641 848Q577 848 521 824T422 757T355 654T330 522ZM510 1454H770L960 1175H745L643 1341H639L536 1175H321L510 1454Z"  />
<glyph unicode="&#xF5;" horiz-adv-x="1280" d="M66 522Q66 642 111 742T233 915T415 1028T639 1069Q759 1069 863 1029T1046 916T1169 743T1214 522Q1214 402 1169 302T1047 129T865 16T641 -25Q521 -25 417 15T234 128T111 301T66 522ZM330 522Q330 449 354 389T421 287T520 221T641 197Q704 197 760 220T858 286T925 389T950 522Q950 594 926 654T859 757T760 824T641 848Q577 848 521 824T422 757T355 654T330 522ZM268 1177Q268 1458 497 1458Q531 1458 558 1448T607 1424T647 1392T682 1360T717 1335T756 1325Q777 1325 792 1335T816 1363T830 1404T835 1452H1012Q1012 1312 956 1242T782 1171Q748 1171 722 1181T673 1205T633 1237T598 1269T563 1294T524 1304Q503 1304 488 1294T464 1266T450 1226T446 1177H268Z"  />
<glyph unicode="&#xF6;" horiz-adv-x="1280" d="M66 522Q66 642 111 742T233 915T415 1028T639 1069Q759 1069 863 1029T1046 916T1169 743T1214 522Q1214 402 1169 302T1047 129T865 16T641 -25Q521 -25 417 15T234 128T111 301T66 522ZM330 522Q330 449 354 389T421 287T520 221T641 197Q704 197 760 220T858 286T925 389T950 522Q950 594 926 654T859 757T760 824T641 848Q577 848 521 824T422 757T355 654T330 522ZM729 1454H928V1216H729V1454ZM352 1454H553V1216H352V1454Z"  />
<glyph unicode="&#xF7;" horiz-adv-x="1280" d="M522 1116H756V895H522V1116ZM106 686H1174V483H106V686ZM522 276H756V55H522V276Z"  />
<glyph unicode="&#xF8;" horiz-adv-x="1280" d="M66 522Q66 642 111 742T233 915T415 1028T639 1069Q713 1069 782 1053T913 1006L995 1120L1108 1042L1028 930Q1115 858 1164 754T1214 522Q1214 402 1169 302T1047 129T865 16T641 -25Q570 -25 505 -11T381 29L297 -88L184 -8L264 102Q171 175 119 282T66 522ZM330 522Q330 454 350 399T408 301L776 815Q745 831 711 839T641 848Q577 848 521 824T422 757T355 654T330 522ZM950 522Q950 582 933 634T883 729L518 221Q576 197 641 197Q704 197 760 220T858 286T925 389T950 522Z"  />
<glyph unicode="&#xF9;" horiz-adv-x="1247" d="M129 1044H389V426Q389 378 396 339T421 272T471 229T551 213Q621 213 676 242T768 319T824 431T844 565V1044H1104V0H854V119Q854 134 854 147T856 171Q857 182 858 193H854Q835 152 801 113T721 43T617 -6T492 -25Q408 -25 341 -3T227 67T154 190T129 373V1044ZM305 1454H573L729 1175H518L305 1454Z"  />
<glyph unicode="&#xFA;" horiz-adv-x="1247" d="M129 1044H389V426Q389 378 396 339T421 272T471 229T551 213Q621 213 676 242T768 319T824 431T844 565V1044H1104V0H854V119Q854 134 854 147T856 171Q857 182 858 193H854Q835 152 801 113T721 43T617 -6T492 -25Q408 -25 341 -3T227 67T154 190T129 373V1044ZM660 1454H928L713 1175H504L660 1454Z"  />
<glyph unicode="&#xFB;" horiz-adv-x="1247" d="M129 1044H389V426Q389 378 396 339T421 272T471 229T551 213Q621 213 676 242T768 319T824 431T844 565V1044H1104V0H854V119Q854 134 854 147T856 171Q857 182 858 193H854Q835 152 801 113T721 43T617 -6T492 -25Q408 -25 341 -3T227 67T154 190T129 373V1044ZM486 1454H746L936 1175H721L619 1341H615L512 1175H297L486 1454Z"  />
<glyph unicode="&#xFC;" horiz-adv-x="1247" d="M129 1044H389V426Q389 378 396 339T421 272T471 229T551 213Q621 213 676 242T768 319T824 431T844 565V1044H1104V0H854V119Q854 134 854 147T856 171Q857 182 858 193H854Q835 152 801 113T721 43T617 -6T492 -25Q408 -25 341 -3T227 67T154 190T129 373V1044ZM707 1454H906V1216H707V1454ZM330 1454H531V1216H330V1454Z"  />
<glyph unicode="&#xFD;" horiz-adv-x="1067" d="M88 -168Q105 -180 124 -190Q141 -198 161 -204T205 -211Q259 -211 307 -178T385 -76L424 16L-16 1044H276L496 442Q504 421 511 397T523 351Q529 326 535 301H539Q544 325 549 349Q554 369 560 393T573 438L778 1044H1063L596 -158Q568 -229 528 -280T439 -365T334 -414T219 -430Q171 -430 132 -420T64 -396Q30 -381 2 -362L88 -168ZM580 1454H848L633 1175H424L580 1454Z"  />
<glyph unicode="&#xFE;" horiz-adv-x="1249" d="M143 1454H403V1008Q403 988 403 972T401 945Q400 932 399 922H403Q417 940 441 965T502 1014T590 1053T711 1069Q817 1069 904 1028T1052 913T1146 740T1180 522Q1180 404 1146 304T1049 130T899 16T707 -25Q623 -25 565 -3T471 46Q429 77 403 117H399Q400 106 401 92Q402 80 402 64T403 27V-410H143V1454ZM395 520Q395 443 414 383T468 281T551 217T659 195Q715 195 762 219T844 287T898 391T918 522Q918 593 900 652T848 755T767 823T662 848Q608 848 560 831T475 774T417 673T395 520Z"  />
<glyph unicode="&#xFF;" horiz-adv-x="1067" d="M88 -168Q105 -180 124 -190Q141 -198 161 -204T205 -211Q259 -211 307 -178T385 -76L424 16L-16 1044H276L496 442Q504 421 511 397T523 351Q529 326 535 301H539Q544 325 549 349Q554 369 560 393T573 438L778 1044H1063L596 -158Q568 -229 528 -280T439 -365T334 -414T219 -430Q171 -430 132 -420T64 -396Q30 -381 2 -362L88 -168ZM627 1454H826V1216H627V1454ZM250 1454H451V1216H250V1454Z"  />
<glyph unicode="&#x131;" horiz-adv-x="547" d="M143 1044H403V0H143V1044Z"  />
<glyph unicode="&#x152;" horiz-adv-x="1982" d="M82 729Q82 833 108 929T184 1107T303 1256T457 1370T640 1444T846 1470Q889 1470 923 1468T988 1462T1046 1457T1104 1454H1862V1227H1253V846H1745V618H1253V227H1894V0H1104Q1075 0 1047 -3T989 -9T924 -15T846 -18Q738 -18 640 8T457 83T303 199T185 350T109 529T82 729ZM354 729Q354 620 391 525T493 360T649 250T846 209Q878 209 904 211T950 216Q973 219 991 223V1231Q973 1234 950 1238Q930 1240 904 1242T846 1245Q739 1245 649 1205T494 1095T391 931T354 729Z"  />
<glyph unicode="&#x153;" horiz-adv-x="2015" d="M68 520Q68 643 112 744T234 917T413 1029T633 1069Q709 1069 773 1054T890 1010T987 942T1065 854H1069Q1100 903 1140 943T1230 1011T1343 1054T1481 1069Q1594 1069 1680 1031T1825 925T1914 768T1944 573Q1944 562 1943 545T1940 512Q1938 494 1937 473H1219Q1226 402 1254 351T1324 265T1419 214T1530 197Q1593 197 1647 214T1743 254Q1791 279 1831 311L1931 125Q1882 83 1819 50Q1765 21 1687 -2T1511 -25Q1430 -25 1364 -9T1244 37T1148 108T1075 197H1071Q1036 148 993 107T895 37T776 -8T633 -25Q516 -25 414 13T234 123T113 295T68 520ZM1681 651Q1679 702 1663 742T1620 811T1557 853T1479 868Q1376 868 1310 811T1225 651H1681ZM330 520Q330 446 354 386T421 284T520 220T641 197Q704 197 760 219T858 284T925 387T950 522Q950 597 925 657T858 759T759 825T641 848Q577 848 521 825T422 759T355 656T330 520Z"  />
<glyph unicode="&#x160;" horiz-adv-x="1135" d="M217 373Q265 329 322 296Q371 267 436 243T580 219Q621 219 659 230T726 262T773 317T791 395Q791 444 762 480T684 545T574 601T448 656T322 720T212 802T134 911T104 1057Q104 1147 141 1224T243 1358T398 1447T592 1479Q700 1479 781 1455T917 1401Q981 1367 1026 1323L911 1108Q869 1143 819 1171Q775 1195 717 1215T590 1235Q544 1235 504 1222T435 1186T388 1131T371 1061Q371 1013 400 978T478 915T587 862T713 809T838 747T948 664T1025 552T1055 401Q1055 314 1023 237T929 102T778 9T575 -25Q514 -25 461 -17T361 6T275 37T203 74Q128 118 74 174L217 373ZM256 1829H471L574 1663H578L680 1829H895L705 1550H445L256 1829Z"  />
<glyph unicode="&#x161;" horiz-adv-x="926" d="M174 311Q209 279 253 254Q291 232 343 215T459 197Q486 197 511 203T555 221T585 250T596 291Q596 320 574 342T517 383T436 419T342 458T249 506T168 568T110 651T88 762Q88 835 118 892T203 988T330 1048T487 1069Q576 1069 641 1051T751 1009Q802 983 838 950L741 758Q712 783 673 803Q640 820 593 834T485 848Q460 848 436 843T394 826T364 796T352 754Q352 726 374 705T431 666T512 631T606 592T699 545T780 483T838 400T860 289Q860 224 833 167T754 67T628 0T461 -25Q363 -25 288 -1T160 52Q99 85 55 129L174 311ZM149 1454H364L467 1288H471L573 1454H788L598 1175H338L149 1454Z"  />
<glyph unicode="&#x178;" horiz-adv-x="1239" d="M487 608L4 1454H303L530 1026Q548 992 563 957T591 894T610 848T618 831H623Q635 862 649 895Q661 923 677 957T711 1026L936 1454H1235L752 608V0H487V608ZM711 1829H910V1591H711V1829ZM334 1829H535V1591H334V1829Z"  />
<glyph unicode="&#x17D;" horiz-adv-x="1257" d="M78 170L723 1096Q744 1128 763 1152T797 1193Q814 1212 829 1227V1231Q817 1230 800 1229Q786 1228 766 1228T721 1227H111V1454H1161V1286L516 358Q494 326 475 302T442 261Q425 242 410 227V223Q422 224 439 225Q453 226 472 226T518 227H1169V0H78V170ZM331 1829H546L649 1663H653L755 1829H970L780 1550H520L331 1829Z"  />
<glyph unicode="&#x17E;" horiz-adv-x="1073" d="M72 139L541 727Q558 749 574 766T603 797Q617 812 629 823V827Q619 826 605 825Q593 824 575 824T532 823H92V1044H981V903L512 315Q494 292 478 275T449 245Q434 230 422 219V215L446 218Q458 219 476 220T520 221H995V0H72V139ZM206 1454H421L524 1288H528L630 1454H845L655 1175H395L206 1454Z"  />
<glyph unicode="&#x192;" horiz-adv-x="1165" d="M41 -4Q67 -7 92 -10Q113 -12 136 -14T178 -16Q205 -16 240 -10T308 15T365 72T395 172L440 684H287V891H457L477 1090Q486 1176 513 1238T578 1344T664 1413T759 1454T853 1474T936 1479Q963 1479 994 1476T1051 1470Q1082 1466 1112 1462V1241Q1080 1244 1050 1248Q1024 1250 997 1252T952 1255Q924 1255 889 1249T821 1222T764 1165T733 1065L717 891H938V684H698L651 147Q643 61 617 -1T552 -106T466 -175T371 -216T276 -235T193 -240Q167 -240 140 -238T91 -233Q65 -229 41 -225V-4Z"  />
<glyph unicode="&#x2C6;" horiz-adv-x="1012" d="M375 1829H635L825 1550H610L508 1716H504L401 1550H186L375 1829Z"  />
<glyph unicode="&#x2C7;" horiz-adv-x="1012" d="M186 1829H401L504 1663H508L610 1829H825L635 1550H375L186 1829Z"  />
<glyph unicode="&#x2DA;" horiz-adv-x="1012" d="M506 1526Q469 1526 434 1536T372 1566T328 1617T311 1686Q311 1726 327 1756T371 1806T434 1836T506 1847Q542 1847 576 1837T638 1806T681 1756T698 1686Q698 1647 682 1617T638 1567T577 1536T506 1526ZM506 1616Q537 1616 556 1635T575 1686Q575 1718 556 1737T506 1757Q475 1757 456 1738T436 1686Q436 1655 455 1636T506 1616Z"  />
<glyph unicode="&#x2DC;" horiz-adv-x="1010" d="M133 1552Q133 1833 362 1833Q396 1833 423 1823T472 1799T512 1767T547 1735T582 1710T621 1700Q642 1700 657 1710T681 1738T695 1779T700 1827H877Q877 1687 821 1617T647 1546Q613 1546 587 1556T538 1580T498 1612T463 1644T428 1669T389 1679Q368 1679 353 1669T329 1641T315 1601T311 1552H133Z"  />
<glyph unicode="&#x3BC;" horiz-adv-x="1288" d="M158 1044H416V426Q416 378 423 339T448 272T498 229T578 213Q648 213 702 242T794 319T851 431T870 565V1044H1130V0H881V127Q881 138 881 149T883 171Q884 182 885 193H879Q849 132 799 84Q778 63 750 44T688 9T611 -15T518 -25Q479 -25 451 -19T405 -4Q384 6 371 18H367Q370 -11 374 -41Q376 -67 378 -96T381 -152V-410H158V1044Z"  />
<glyph unicode="&#x2013;" horiz-adv-x="1452" d="M160 686H1292V483H160V686Z"  />
<glyph unicode="&#x2014;" horiz-adv-x="1862" d="M160 686H1702V483H160V686Z"  />
<glyph unicode="&#x2018;" horiz-adv-x="485" d="M236 1479H418L322 1032H82L236 1479Z"  />
<glyph unicode="&#x2019;" horiz-adv-x="473" d="M186 1479H426L274 1030H90L186 1479Z"  />
<glyph unicode="&#x201A;" horiz-adv-x="512" d="M162 264H395L242 -182H66L162 264Z"  />
<glyph unicode="&#x201C;" horiz-adv-x="821" d="M569 1479H754L657 1032H418L569 1479ZM236 1479H420L322 1032H82L236 1479Z"  />
<glyph unicode="&#x201D;" horiz-adv-x="809" d="M522 1479H762L610 1030H426L522 1479ZM186 1479H428L274 1030H90L186 1479Z"  />
<glyph unicode="&#x201E;" horiz-adv-x="838" d="M489 264H721L569 -182H393L489 264ZM162 264H395L242 -182H66L162 264Z"  />
<glyph unicode="&#x2020;" horiz-adv-x="909" d="M328 842H74V1044H328V1454H578V1044H836V842H578V-102H328V842Z"  />
<glyph unicode="&#x2021;" horiz-adv-x="975" d="M106 535H360V842H106V1044H360V1454H610V1044H868V842H610V535H868V334H610V-102H360V334H106V535Z"  />
<glyph unicode="&#x2022;" horiz-adv-x="852" d="M426 254Q355 254 293 281T185 354T111 463T84 596Q84 666 111 728T184 837T293 911T426 938Q497 938 559 911T668 838T741 729T768 596Q768 525 742 463T669 355T560 281T426 254Z"  />
<glyph unicode="&#x2026;" horiz-adv-x="1683" d="M1298 260H1550V0H1298V260ZM715 260H967V0H715V260ZM133 260H383V0H133V260Z"  />
<glyph unicode="&#x2030;" horiz-adv-x="2386" d="M412 831Q343 831 282 856T176 925T104 1028T78 1155Q78 1221 104 1280T175 1383T282 1453T412 1479Q481 1479 542 1453T649 1383T721 1280T748 1155Q748 1087 722 1028T649 926T542 857T412 831ZM1245 1454H1485L369 0H129L1245 1454ZM412 1020Q440 1020 465 1030T508 1059T538 1101T549 1155Q549 1183 538 1207T509 1250T465 1279T412 1290Q383 1290 359 1280T316 1251T287 1208T276 1155Q276 1126 286 1102T315 1059T358 1031T412 1020ZM1636 297Q1636 363 1662 422T1733 525T1839 595T1970 621Q2039 621 2100 595T2207 525T2279 422T2306 297Q2306 230 2280 172T2207 70T2100 1T1970 -25Q1900 -25 1839 0T1733 69T1662 171T1636 297ZM872 297Q872 363 898 422T969 525T1075 595T1206 621Q1275 621 1336 595T1442 525T1514 422T1540 297Q1540 230 1514 172T1443 70T1336 1T1206 -25Q1136 -25 1075 0T969 69T898 171T872 297ZM1835 299Q1835 270 1845 246T1874 203T1916 175T1970 164Q1998 164 2023 174T2067 203T2096 245T2107 299Q2107 327 2097 351T2067 394T2023 423T1970 434Q1941 434 1917 424T1874 395T1846 352T1835 299ZM1071 299Q1071 270 1081 246T1110 203T1152 175T1206 164Q1234 164 1259 174T1303 203T1332 245T1343 299Q1343 327 1333 351T1303 394T1259 423T1206 434Q1177 434 1153 424T1110 395T1082 352T1071 299Z"  />
<glyph unicode="&#x2039;" horiz-adv-x="737" d="M72 578L408 999H655L319 578L655 158H408L72 578Z"  />
<glyph unicode="&#x203A;" horiz-adv-x="737" d="M418 578L82 999H330L666 578L330 158H82L418 578Z"  />
<glyph unicode="&#x2044;" horiz-adv-x="367" d="M-256 0L432 1454H621L-66 0H-256Z"  />
<glyph unicode="&#x2074;" horiz-adv-x="809" d="M459 1069H41V1200L428 1765H649V1237H768V1069H649V866H459V1069ZM459 1237V1462Q459 1482 459 1502T462 1539Q463 1557 465 1575H461Q454 1559 445 1542Q437 1528 428 1511T408 1479L240 1241V1237H459Z"  />
<glyph unicode="&#x20AC;" horiz-adv-x="1206" d="M63 668H178Q173 692 173 728T176 795H63V952H205Q238 1067 304 1164T461 1331T665 1440T905 1479Q949 1479 988 1475T1058 1465Q1093 1459 1124 1452L1061 1212Q1037 1218 1011 1222Q988 1226 960 1229T899 1233Q826 1233 762 1214T645 1157T552 1068T487 952H1010L979 795H451Q446 766 447 733T453 668H952L922 512H498Q522 447 563 394T657 304T774 246T909 225Q947 225 981 229T1042 239Q1072 245 1098 254L1147 12Q1115 1 1077 -7Q1045 -14 1001 -19T905 -25Q774 -25 660 14T456 125T301 294T205 512H63V668Z"  />
<glyph unicode="&#x2122;" horiz-adv-x="1937" d="M965 1454H1147L1333 1026Q1338 1012 1343 998T1353 970Q1357 955 1362 940H1366Q1370 955 1374 970Q1378 983 1382 997T1393 1026L1581 1454H1761L1831 547H1636L1602 1014Q1600 1025 1600 1036T1602 1057Q1603 1068 1604 1077H1599L1440 713H1286L1126 1077H1122Q1123 1068 1124 1057Q1126 1038 1124 1014L1087 547H893L965 1454ZM340 1282H37V1454H838V1282H537V547H340V1282Z"  />

</font>
</defs>
</svg>
